<?xml version="1.0" encoding="utf-8" standalone="no"?>
<!DOCTYPE svg PUBLIC "-//W3C//DTD SVG 1.1//EN"
  "http://www.w3.org/Graphics/SVG/1.1/DTD/svg11.dtd">
<svg xmlns:xlink="http://www.w3.org/1999/xlink" width="709.461pt" height="205.974275pt" viewBox="0 0 709.461 205.974275" xmlns="http://www.w3.org/2000/svg" version="1.1">
 <metadata>
  <rdf:RDF xmlns:dc="http://purl.org/dc/elements/1.1/" xmlns:cc="http://creativecommons.org/ns#" xmlns:rdf="http://www.w3.org/1999/02/22-rdf-syntax-ns#">
   <cc:Work>
    <dc:type rdf:resource="http://purl.org/dc/dcmitype/StillImage"/>
    <dc:date>2025-11-29T17:56:21.007428</dc:date>
    <dc:format>image/svg+xml</dc:format>
    <dc:creator>
     <cc:Agent>
      <dc:title>Matplotlib v3.10.3, https://matplotlib.org/</dc:title>
     </cc:Agent>
    </dc:creator>
   </cc:Work>
  </rdf:RDF>
 </metadata>
 <defs>
  <style type="text/css">*{stroke-linejoin: round; stroke-linecap: butt}</style>
 </defs>
 <g id="figure_1">
  <g id="patch_1">
   <path d="M 0 205.974275 
L 709.461 205.974275 
L 709.461 0 
L 0 0 
z
" style="fill: #ffffff"/>
  </g>
  <g id="axes_1">
   <g id="patch_2">
    <path d="M 36.807125 165.321025 
L 577.521125 165.321025 
L 577.521125 23.777025 
L 36.807125 23.777025 
z
" style="fill: #ffffff"/>
   </g>
   <g id="patch_3">
    <path d="M 44.620911 165.321025 
L 48.192928 165.321025 
L 48.192928 34.885071 
L 44.620911 34.885071 
z
" clip-path="url(#pb392e9fb0f)" style="fill: #0173b2"/>
   </g>
   <g id="patch_4">
    <path d="M 75.876056 165.321025 
L 79.448072 165.321025 
L 79.448072 42.341598 
L 75.876056 42.341598 
z
" clip-path="url(#pb392e9fb0f)" style="fill: #0173b2"/>
   </g>
   <g id="patch_5">
    <path d="M 107.1312 165.321025 
L 110.703217 165.321025 
L 110.703217 39.487173 
L 107.1312 39.487173 
z
" clip-path="url(#pb392e9fb0f)" style="fill: #0173b2"/>
   </g>
   <g id="patch_6">
    <path d="M 138.386345 165.321025 
L 141.958361 165.321025 
L 141.958361 38.890453 
L 138.386345 38.890453 
z
" clip-path="url(#pb392e9fb0f)" style="fill: #0173b2"/>
   </g>
   <g id="patch_7">
    <path d="M 169.641489 165.321025 
L 173.213506 165.321025 
L 173.213506 32.925704 
L 169.641489 32.925704 
z
" clip-path="url(#pb392e9fb0f)" style="fill: #0173b2"/>
   </g>
   <g id="patch_8">
    <path d="M 200.896634 165.321025 
L 204.46865 165.321025 
L 204.46865 37.706585 
L 200.896634 37.706585 
z
" clip-path="url(#pb392e9fb0f)" style="fill: #0173b2"/>
   </g>
   <g id="patch_9">
    <path d="M 232.151778 165.321025 
L 235.723795 165.321025 
L 235.723795 34.222316 
L 232.151778 34.222316 
z
" clip-path="url(#pb392e9fb0f)" style="fill: #0173b2"/>
   </g>
   <g id="patch_10">
    <path d="M 263.406923 165.321025 
L 266.978939 165.321025 
L 266.978939 28.48354 
L 263.406923 28.48354 
z
" clip-path="url(#pb392e9fb0f)" style="fill: #0173b2"/>
   </g>
   <g id="patch_11">
    <path d="M 294.662067 165.321025 
L 298.234084 165.321025 
L 298.234084 43.106688 
L 294.662067 43.106688 
z
" clip-path="url(#pb392e9fb0f)" style="fill: #0173b2"/>
   </g>
   <g id="patch_12">
    <path d="M 325.917212 165.321025 
L 329.489228 165.321025 
L 329.489228 40.93566 
L 325.917212 40.93566 
z
" clip-path="url(#pb392e9fb0f)" style="fill: #0173b2"/>
   </g>
   <g id="patch_13">
    <path d="M 357.172356 165.321025 
L 360.744373 165.321025 
L 360.744373 32.413491 
L 357.172356 32.413491 
z
" clip-path="url(#pb392e9fb0f)" style="fill: #0173b2"/>
   </g>
   <g id="patch_14">
    <path d="M 388.427501 165.321025 
L 391.999517 165.321025 
L 391.999517 30.444025 
L 388.427501 30.444025 
z
" clip-path="url(#pb392e9fb0f)" style="fill: #0173b2"/>
   </g>
   <g id="patch_15">
    <path d="M 419.682645 165.321025 
L 423.254662 165.321025 
L 423.254662 27.92178 
L 419.682645 27.92178 
z
" clip-path="url(#pb392e9fb0f)" style="fill: #0173b2"/>
   </g>
   <g id="patch_16">
    <path d="M 450.93779 165.321025 
L 454.509806 165.321025 
L 454.509806 39.681134 
L 450.93779 39.681134 
z
" clip-path="url(#pb392e9fb0f)" style="fill: #0173b2"/>
   </g>
   <g id="patch_17">
    <path d="M 482.192934 165.321025 
L 485.764951 165.321025 
L 485.764951 37.993787 
L 482.192934 37.993787 
z
" clip-path="url(#pb392e9fb0f)" style="fill: #0173b2"/>
   </g>
   <g id="patch_18">
    <path d="M 513.448079 165.321025 
L 517.020095 165.321025 
L 517.020095 32.208117 
L 513.448079 32.208117 
z
" clip-path="url(#pb392e9fb0f)" style="fill: #0173b2"/>
   </g>
   <g id="patch_19">
    <path d="M 544.703223 165.321025 
L 548.27524 165.321025 
L 548.27524 31.362798 
L 544.703223 31.362798 
z
" clip-path="url(#pb392e9fb0f)" style="fill: #0173b2"/>
   </g>
   <g id="patch_20">
    <path d="M 48.192928 165.321025 
L 51.764944 165.321025 
L 51.764944 39.045101 
L 48.192928 39.045101 
z
" clip-path="url(#pb392e9fb0f)" style="fill: #de8f05"/>
   </g>
   <g id="patch_21">
    <path d="M 79.448072 165.321025 
L 83.020089 165.321025 
L 83.020089 42.644076 
L 79.448072 42.644076 
z
" clip-path="url(#pb392e9fb0f)" style="fill: #de8f05"/>
   </g>
   <g id="patch_22">
    <path d="M 110.703217 165.321025 
L 114.275233 165.321025 
L 114.275233 35.233133 
L 110.703217 35.233133 
z
" clip-path="url(#pb392e9fb0f)" style="fill: #de8f05"/>
   </g>
   <g id="patch_23">
    <path d="M 141.958361 165.321025 
L 145.530378 165.321025 
L 145.530378 36.907136 
L 141.958361 36.907136 
z
" clip-path="url(#pb392e9fb0f)" style="fill: #de8f05"/>
   </g>
   <g id="patch_24">
    <path d="M 173.213506 165.321025 
L 176.785522 165.321025 
L 176.785522 36.453862 
L 173.213506 36.453862 
z
" clip-path="url(#pb392e9fb0f)" style="fill: #de8f05"/>
   </g>
   <g id="patch_25">
    <path d="M 204.46865 165.321025 
L 208.040667 165.321025 
L 208.040667 38.406262 
L 204.46865 38.406262 
z
" clip-path="url(#pb392e9fb0f)" style="fill: #de8f05"/>
   </g>
   <g id="patch_26">
    <path d="M 235.723795 165.321025 
L 239.295811 165.321025 
L 239.295811 36.016109 
L 235.723795 36.016109 
z
" clip-path="url(#pb392e9fb0f)" style="fill: #de8f05"/>
   </g>
   <g id="patch_27">
    <path d="M 266.978939 165.321025 
L 270.550956 165.321025 
L 270.550956 26.007035 
L 266.978939 26.007035 
z
" clip-path="url(#pb392e9fb0f)" style="fill: #de8f05"/>
   </g>
   <g id="patch_28">
    <path d="M 298.234084 165.321025 
L 301.8061 165.321025 
L 301.8061 47.838113 
L 298.234084 47.838113 
z
" clip-path="url(#pb392e9fb0f)" style="fill: #de8f05"/>
   </g>
   <g id="patch_29">
    <path d="M 329.489228 165.321025 
L 333.061245 165.321025 
L 333.061245 41.749885 
L 329.489228 41.749885 
z
" clip-path="url(#pb392e9fb0f)" style="fill: #de8f05"/>
   </g>
   <g id="patch_30">
    <path d="M 360.744373 165.321025 
L 364.316389 165.321025 
L 364.316389 27.635662 
L 360.744373 27.635662 
z
" clip-path="url(#pb392e9fb0f)" style="fill: #de8f05"/>
   </g>
   <g id="patch_31">
    <path d="M 391.999517 165.321025 
L 395.571534 165.321025 
L 395.571534 34.683692 
L 391.999517 34.683692 
z
" clip-path="url(#pb392e9fb0f)" style="fill: #de8f05"/>
   </g>
   <g id="patch_32">
    <path d="M 423.254662 165.321025 
L 426.826678 165.321025 
L 426.826678 36.854006 
L 423.254662 36.854006 
z
" clip-path="url(#pb392e9fb0f)" style="fill: #de8f05"/>
   </g>
   <g id="patch_33">
    <path d="M 454.509806 165.321025 
L 458.081823 165.321025 
L 458.081823 42.362909 
L 454.509806 42.362909 
z
" clip-path="url(#pb392e9fb0f)" style="fill: #de8f05"/>
   </g>
   <g id="patch_34">
    <path d="M 485.764951 165.321025 
L 489.336967 165.321025 
L 489.336967 39.89985 
L 485.764951 39.89985 
z
" clip-path="url(#pb392e9fb0f)" style="fill: #de8f05"/>
   </g>
   <g id="patch_35">
    <path d="M 517.020095 165.321025 
L 520.592112 165.321025 
L 520.592112 26.12175 
L 517.020095 26.12175 
z
" clip-path="url(#pb392e9fb0f)" style="fill: #de8f05"/>
   </g>
   <g id="patch_36">
    <path d="M 548.27524 165.321025 
L 551.847256 165.321025 
L 551.847256 33.108003 
L 548.27524 33.108003 
z
" clip-path="url(#pb392e9fb0f)" style="fill: #de8f05"/>
   </g>
   <g id="patch_37">
    <path d="M 51.764944 165.321025 
L 55.336961 165.321025 
L 55.336961 40.800366 
L 51.764944 40.800366 
z
" clip-path="url(#pb392e9fb0f)" style="fill: #029e73"/>
   </g>
   <g id="patch_38">
    <path d="M 83.020089 165.321025 
L 86.592105 165.321025 
L 86.592105 42.701046 
L 83.020089 42.701046 
z
" clip-path="url(#pb392e9fb0f)" style="fill: #029e73"/>
   </g>
   <g id="patch_39">
    <path d="M 114.275233 165.321025 
L 117.84725 165.321025 
L 117.84725 32.538849 
L 114.275233 32.538849 
z
" clip-path="url(#pb392e9fb0f)" style="fill: #029e73"/>
   </g>
   <g id="patch_40">
    <path d="M 145.530378 165.321025 
L 149.102394 165.321025 
L 149.102394 44.946198 
L 145.530378 44.946198 
z
" clip-path="url(#pb392e9fb0f)" style="fill: #029e73"/>
   </g>
   <g id="patch_41">
    <path d="M 176.785522 165.321025 
L 180.357539 165.321025 
L 180.357539 39.824985 
L 176.785522 39.824985 
z
" clip-path="url(#pb392e9fb0f)" style="fill: #029e73"/>
   </g>
   <g id="patch_42">
    <path d="M 208.040667 165.321025 
L 211.612683 165.321025 
L 211.612683 39.05515 
L 208.040667 39.05515 
z
" clip-path="url(#pb392e9fb0f)" style="fill: #029e73"/>
   </g>
   <g id="patch_43">
    <path d="M 239.295811 165.321025 
L 242.867828 165.321025 
L 242.867828 38.902193 
L 239.295811 38.902193 
z
" clip-path="url(#pb392e9fb0f)" style="fill: #029e73"/>
   </g>
   <g id="patch_44">
    <path d="M 270.550956 165.321025 
L 274.122972 165.321025 
L 274.122972 32.301304 
L 270.550956 32.301304 
z
" clip-path="url(#pb392e9fb0f)" style="fill: #029e73"/>
   </g>
   <g id="patch_45">
    <path d="M 301.8061 165.321025 
L 305.378117 165.321025 
L 305.378117 41.025278 
L 301.8061 41.025278 
z
" clip-path="url(#pb392e9fb0f)" style="fill: #029e73"/>
   </g>
   <g id="patch_46">
    <path d="M 333.061245 165.321025 
L 336.633261 165.321025 
L 336.633261 43.341553 
L 333.061245 43.341553 
z
" clip-path="url(#pb392e9fb0f)" style="fill: #029e73"/>
   </g>
   <g id="patch_47">
    <path d="M 364.316389 165.321025 
L 367.888406 165.321025 
L 367.888406 27.519506 
L 364.316389 27.519506 
z
" clip-path="url(#pb392e9fb0f)" style="fill: #029e73"/>
   </g>
   <g id="patch_48">
    <path d="M 395.571534 165.321025 
L 399.14355 165.321025 
L 399.14355 33.766738 
L 395.571534 33.766738 
z
" clip-path="url(#pb392e9fb0f)" style="fill: #029e73"/>
   </g>
   <g id="patch_49">
    <path d="M 426.826678 165.321025 
L 430.398695 165.321025 
L 430.398695 34.128696 
L 426.826678 34.128696 
z
" clip-path="url(#pb392e9fb0f)" style="fill: #029e73"/>
   </g>
   <g id="patch_50">
    <path d="M 458.081823 165.321025 
L 461.653839 165.321025 
L 461.653839 47.746874 
L 458.081823 47.746874 
z
" clip-path="url(#pb392e9fb0f)" style="fill: #029e73"/>
   </g>
   <g id="patch_51">
    <path d="M 489.336967 165.321025 
L 492.908984 165.321025 
L 492.908984 42.613789 
L 489.336967 42.613789 
z
" clip-path="url(#pb392e9fb0f)" style="fill: #029e73"/>
   </g>
   <g id="patch_52">
    <path d="M 520.592112 165.321025 
L 524.164128 165.321025 
L 524.164128 31.801929 
L 520.592112 31.801929 
z
" clip-path="url(#pb392e9fb0f)" style="fill: #029e73"/>
   </g>
   <g id="patch_53">
    <path d="M 551.847256 165.321025 
L 555.419273 165.321025 
L 555.419273 32.196125 
L 551.847256 32.196125 
z
" clip-path="url(#pb392e9fb0f)" style="fill: #029e73"/>
   </g>
   <g id="patch_54">
    <path d="M 55.336961 165.321025 
L 58.908977 165.321025 
L 58.908977 47.34672 
L 55.336961 47.34672 
z
" clip-path="url(#pb392e9fb0f)" style="fill: #d55e00"/>
   </g>
   <g id="patch_55">
    <path d="M 86.592105 165.321025 
L 90.164122 165.321025 
L 90.164122 41.959435 
L 86.592105 41.959435 
z
" clip-path="url(#pb392e9fb0f)" style="fill: #d55e00"/>
   </g>
   <g id="patch_56">
    <path d="M 117.84725 165.321025 
L 121.419266 165.321025 
L 121.419266 38.499784 
L 117.84725 38.499784 
z
" clip-path="url(#pb392e9fb0f)" style="fill: #d55e00"/>
   </g>
   <g id="patch_57">
    <path d="M 149.102394 165.321025 
L 152.674411 165.321025 
L 152.674411 39.568606 
L 149.102394 39.568606 
z
" clip-path="url(#pb392e9fb0f)" style="fill: #d55e00"/>
   </g>
   <g id="patch_58">
    <path d="M 180.357539 165.321025 
L 183.929555 165.321025 
L 183.929555 44.418192 
L 180.357539 44.418192 
z
" clip-path="url(#pb392e9fb0f)" style="fill: #d55e00"/>
   </g>
   <g id="patch_59">
    <path d="M 211.612683 165.321025 
L 215.1847 165.321025 
L 215.1847 42.751256 
L 211.612683 42.751256 
z
" clip-path="url(#pb392e9fb0f)" style="fill: #d55e00"/>
   </g>
   <g id="patch_60">
    <path d="M 242.867828 165.321025 
L 246.439844 165.321025 
L 246.439844 41.419858 
L 242.867828 41.419858 
z
" clip-path="url(#pb392e9fb0f)" style="fill: #d55e00"/>
   </g>
   <g id="patch_61">
    <path d="M 274.122972 165.321025 
L 277.694989 165.321025 
L 277.694989 27.274991 
L 274.122972 27.274991 
z
" clip-path="url(#pb392e9fb0f)" style="fill: #d55e00"/>
   </g>
   <g id="patch_62">
    <path d="M 305.378117 165.321025 
L 308.950133 165.321025 
L 308.950133 44.131505 
L 305.378117 44.131505 
z
" clip-path="url(#pb392e9fb0f)" style="fill: #d55e00"/>
   </g>
   <g id="patch_63">
    <path d="M 336.633261 165.321025 
L 340.205278 165.321025 
L 340.205278 48.639205 
L 336.633261 48.639205 
z
" clip-path="url(#pb392e9fb0f)" style="fill: #d55e00"/>
   </g>
   <g id="patch_64">
    <path d="M 367.888406 165.321025 
L 371.460422 165.321025 
L 371.460422 26.741876 
L 367.888406 26.741876 
z
" clip-path="url(#pb392e9fb0f)" style="fill: #d55e00"/>
   </g>
   <g id="patch_65">
    <path d="M 399.14355 165.321025 
L 402.715567 165.321025 
L 402.715567 33.014871 
L 399.14355 33.014871 
z
" clip-path="url(#pb392e9fb0f)" style="fill: #d55e00"/>
   </g>
   <g id="patch_66">
    <path d="M 430.398695 165.321025 
L 433.970711 165.321025 
L 433.970711 28.430524 
L 430.398695 28.430524 
z
" clip-path="url(#pb392e9fb0f)" style="fill: #d55e00"/>
   </g>
   <g id="patch_67">
    <path d="M 461.653839 165.321025 
L 465.225856 165.321025 
L 465.225856 45.023785 
L 461.653839 45.023785 
z
" clip-path="url(#pb392e9fb0f)" style="fill: #d55e00"/>
   </g>
   <g id="patch_68">
    <path d="M 492.908984 165.321025 
L 496.481 165.321025 
L 496.481 41.93506 
L 492.908984 41.93506 
z
" clip-path="url(#pb392e9fb0f)" style="fill: #d55e00"/>
   </g>
   <g id="patch_69">
    <path d="M 524.164128 165.321025 
L 527.736145 165.321025 
L 527.736145 39.336019 
L 524.164128 39.336019 
z
" clip-path="url(#pb392e9fb0f)" style="fill: #d55e00"/>
   </g>
   <g id="patch_70">
    <path d="M 555.419273 165.321025 
L 558.991289 165.321025 
L 558.991289 41.45057 
L 555.419273 41.45057 
z
" clip-path="url(#pb392e9fb0f)" style="fill: #d55e00"/>
   </g>
   <g id="patch_71">
    <path d="M 58.908977 165.321025 
L 62.480994 165.321025 
L 62.480994 36.341355 
L 58.908977 36.341355 
z
" clip-path="url(#pb392e9fb0f)" style="fill: #0173b2"/>
   </g>
   <g id="patch_72">
    <path d="M 90.164122 165.321025 
L 93.736138 165.321025 
L 93.736138 39.649688 
L 90.164122 39.649688 
z
" clip-path="url(#pb392e9fb0f)" style="fill: #0173b2"/>
   </g>
   <g id="patch_73">
    <path d="M 121.419266 165.321025 
L 124.991283 165.321025 
L 124.991283 38.730347 
L 121.419266 38.730347 
z
" clip-path="url(#pb392e9fb0f)" style="fill: #0173b2"/>
   </g>
   <g id="patch_74">
    <path d="M 152.674411 165.321025 
L 156.246427 165.321025 
L 156.246427 43.246631 
L 152.674411 43.246631 
z
" clip-path="url(#pb392e9fb0f)" style="fill: #0173b2"/>
   </g>
   <g id="patch_75">
    <path d="M 183.929555 165.321025 
L 187.501572 165.321025 
L 187.501572 39.279107 
L 183.929555 39.279107 
z
" clip-path="url(#pb392e9fb0f)" style="fill: #0173b2"/>
   </g>
   <g id="patch_76">
    <path d="M 215.1847 165.321025 
L 218.756716 165.321025 
L 218.756716 41.915766 
L 215.1847 41.915766 
z
" clip-path="url(#pb392e9fb0f)" style="fill: #0173b2"/>
   </g>
   <g id="patch_77">
    <path d="M 246.439844 165.321025 
L 250.011861 165.321025 
L 250.011861 39.675166 
L 246.439844 39.675166 
z
" clip-path="url(#pb392e9fb0f)" style="fill: #0173b2"/>
   </g>
   <g id="patch_78">
    <path d="M 277.694989 165.321025 
L 281.267005 165.321025 
L 281.267005 31.46575 
L 277.694989 31.46575 
z
" clip-path="url(#pb392e9fb0f)" style="fill: #0173b2"/>
   </g>
   <g id="patch_79">
    <path d="M 308.950133 165.321025 
L 312.52215 165.321025 
L 312.52215 43.472989 
L 308.950133 43.472989 
z
" clip-path="url(#pb392e9fb0f)" style="fill: #0173b2"/>
   </g>
   <g id="patch_80">
    <path d="M 340.205278 165.321025 
L 343.777294 165.321025 
L 343.777294 41.161852 
L 340.205278 41.161852 
z
" clip-path="url(#pb392e9fb0f)" style="fill: #0173b2"/>
   </g>
   <g id="patch_81">
    <path d="M 371.460422 165.321025 
L 375.032439 165.321025 
L 375.032439 32.003953 
L 371.460422 32.003953 
z
" clip-path="url(#pb392e9fb0f)" style="fill: #0173b2"/>
   </g>
   <g id="patch_82">
    <path d="M 402.715567 165.321025 
L 406.287583 165.321025 
L 406.287583 34.511228 
L 402.715567 34.511228 
z
" clip-path="url(#pb392e9fb0f)" style="fill: #0173b2"/>
   </g>
   <g id="patch_83">
    <path d="M 433.970711 165.321025 
L 437.542728 165.321025 
L 437.542728 30.622954 
L 433.970711 30.622954 
z
" clip-path="url(#pb392e9fb0f)" style="fill: #0173b2"/>
   </g>
   <g id="patch_84">
    <path d="M 465.225856 165.321025 
L 468.797872 165.321025 
L 468.797872 40.780688 
L 465.225856 40.780688 
z
" clip-path="url(#pb392e9fb0f)" style="fill: #0173b2"/>
   </g>
   <g id="patch_85">
    <path d="M 496.481 165.321025 
L 500.053017 165.321025 
L 500.053017 39.367056 
L 496.481 39.367056 
z
" clip-path="url(#pb392e9fb0f)" style="fill: #0173b2"/>
   </g>
   <g id="patch_86">
    <path d="M 527.736145 165.321025 
L 531.308161 165.321025 
L 531.308161 33.533991 
L 527.736145 33.533991 
z
" clip-path="url(#pb392e9fb0f)" style="fill: #0173b2"/>
   </g>
   <g id="patch_87">
    <path d="M 558.991289 165.321025 
L 562.563306 165.321025 
L 562.563306 37.282679 
L 558.991289 37.282679 
z
" clip-path="url(#pb392e9fb0f)" style="fill: #0173b2"/>
   </g>
   <g id="patch_88">
    <path d="M 62.480994 165.321025 
L 66.05301 165.321025 
L 66.05301 35.628378 
L 62.480994 35.628378 
z
" clip-path="url(#pb392e9fb0f)" style="fill: #de8f05"/>
   </g>
   <g id="patch_89">
    <path d="M 93.736138 165.321025 
L 97.308155 165.321025 
L 97.308155 43.006369 
L 93.736138 43.006369 
z
" clip-path="url(#pb392e9fb0f)" style="fill: #de8f05"/>
   </g>
   <g id="patch_90">
    <path d="M 124.991283 165.321025 
L 128.563299 165.321025 
L 128.563299 37.614454 
L 124.991283 37.614454 
z
" clip-path="url(#pb392e9fb0f)" style="fill: #de8f05"/>
   </g>
   <g id="patch_91">
    <path d="M 156.246427 165.321025 
L 159.818444 165.321025 
L 159.818444 41.699837 
L 156.246427 41.699837 
z
" clip-path="url(#pb392e9fb0f)" style="fill: #de8f05"/>
   </g>
   <g id="patch_92">
    <path d="M 187.501572 165.321025 
L 191.073588 165.321025 
L 191.073588 38.205112 
L 187.501572 38.205112 
z
" clip-path="url(#pb392e9fb0f)" style="fill: #de8f05"/>
   </g>
   <g id="patch_93">
    <path d="M 218.756716 165.321025 
L 222.328733 165.321025 
L 222.328733 39.129056 
L 218.756716 39.129056 
z
" clip-path="url(#pb392e9fb0f)" style="fill: #de8f05"/>
   </g>
   <g id="patch_94">
    <path d="M 250.011861 165.321025 
L 253.583877 165.321025 
L 253.583877 38.031863 
L 250.011861 38.031863 
z
" clip-path="url(#pb392e9fb0f)" style="fill: #de8f05"/>
   </g>
   <g id="patch_95">
    <path d="M 281.267005 165.321025 
L 284.839022 165.321025 
L 284.839022 31.875364 
L 281.267005 31.875364 
z
" clip-path="url(#pb392e9fb0f)" style="fill: #de8f05"/>
   </g>
   <g id="patch_96">
    <path d="M 312.52215 165.321025 
L 316.094166 165.321025 
L 316.094166 48.083495 
L 312.52215 48.083495 
z
" clip-path="url(#pb392e9fb0f)" style="fill: #de8f05"/>
   </g>
   <g id="patch_97">
    <path d="M 343.777294 165.321025 
L 347.349311 165.321025 
L 347.349311 38.530411 
L 343.777294 38.530411 
z
" clip-path="url(#pb392e9fb0f)" style="fill: #de8f05"/>
   </g>
   <g id="patch_98">
    <path d="M 375.032439 165.321025 
L 378.604455 165.321025 
L 378.604455 28.826273 
L 375.032439 28.826273 
z
" clip-path="url(#pb392e9fb0f)" style="fill: #de8f05"/>
   </g>
   <g id="patch_99">
    <path d="M 406.287583 165.321025 
L 409.8596 165.321025 
L 409.8596 26.32348 
L 406.287583 26.32348 
z
" clip-path="url(#pb392e9fb0f)" style="fill: #de8f05"/>
   </g>
   <g id="patch_100">
    <path d="M 437.542728 165.321025 
L 441.114744 165.321025 
L 441.114744 33.086818 
L 437.542728 33.086818 
z
" clip-path="url(#pb392e9fb0f)" style="fill: #de8f05"/>
   </g>
   <g id="patch_101">
    <path d="M 468.797872 165.321025 
L 472.369889 165.321025 
L 472.369889 39.116988 
L 468.797872 39.116988 
z
" clip-path="url(#pb392e9fb0f)" style="fill: #de8f05"/>
   </g>
   <g id="patch_102">
    <path d="M 500.053017 165.321025 
L 503.625033 165.321025 
L 503.625033 41.214606 
L 500.053017 41.214606 
z
" clip-path="url(#pb392e9fb0f)" style="fill: #de8f05"/>
   </g>
   <g id="patch_103">
    <path d="M 531.308161 165.321025 
L 534.880178 165.321025 
L 534.880178 32.501728 
L 531.308161 32.501728 
z
" clip-path="url(#pb392e9fb0f)" style="fill: #de8f05"/>
   </g>
   <g id="patch_104">
    <path d="M 562.563306 165.321025 
L 566.135322 165.321025 
L 566.135322 34.333925 
L 562.563306 34.333925 
z
" clip-path="url(#pb392e9fb0f)" style="fill: #de8f05"/>
   </g>
   <g id="patch_105">
    <path d="M 66.05301 165.321025 
L 69.625027 165.321025 
L 69.625027 37.260356 
L 66.05301 37.260356 
z
" clip-path="url(#pb392e9fb0f)" style="fill: #029e73"/>
   </g>
   <g id="patch_106">
    <path d="M 97.308155 165.321025 
L 100.880171 165.321025 
L 100.880171 38.914784 
L 97.308155 38.914784 
z
" clip-path="url(#pb392e9fb0f)" style="fill: #029e73"/>
   </g>
   <g id="patch_107">
    <path d="M 128.563299 165.321025 
L 132.135316 165.321025 
L 132.135316 37.837997 
L 128.563299 37.837997 
z
" clip-path="url(#pb392e9fb0f)" style="fill: #029e73"/>
   </g>
   <g id="patch_108">
    <path d="M 159.818444 165.321025 
L 163.39046 165.321025 
L 163.39046 40.690297 
L 159.818444 40.690297 
z
" clip-path="url(#pb392e9fb0f)" style="fill: #029e73"/>
   </g>
   <g id="patch_109">
    <path d="M 191.073588 165.321025 
L 194.645605 165.321025 
L 194.645605 37.785376 
L 191.073588 37.785376 
z
" clip-path="url(#pb392e9fb0f)" style="fill: #029e73"/>
   </g>
   <g id="patch_110">
    <path d="M 222.328733 165.321025 
L 225.900749 165.321025 
L 225.900749 39.472801 
L 222.328733 39.472801 
z
" clip-path="url(#pb392e9fb0f)" style="fill: #029e73"/>
   </g>
   <g id="patch_111">
    <path d="M 253.583877 165.321025 
L 257.155894 165.321025 
L 257.155894 36.148626 
L 253.583877 36.148626 
z
" clip-path="url(#pb392e9fb0f)" style="fill: #029e73"/>
   </g>
   <g id="patch_112">
    <path d="M 284.839022 165.321025 
L 288.411038 165.321025 
L 288.411038 31.36913 
L 284.839022 31.36913 
z
" clip-path="url(#pb392e9fb0f)" style="fill: #029e73"/>
   </g>
   <g id="patch_113">
    <path d="M 316.094166 165.321025 
L 319.666183 165.321025 
L 319.666183 47.80591 
L 316.094166 47.80591 
z
" clip-path="url(#pb392e9fb0f)" style="fill: #029e73"/>
   </g>
   <g id="patch_114">
    <path d="M 347.349311 165.321025 
L 350.921327 165.321025 
L 350.921327 40.174918 
L 347.349311 40.174918 
z
" clip-path="url(#pb392e9fb0f)" style="fill: #029e73"/>
   </g>
   <g id="patch_115">
    <path d="M 378.604455 165.321025 
L 382.176472 165.321025 
L 382.176472 32.478058 
L 378.604455 32.478058 
z
" clip-path="url(#pb392e9fb0f)" style="fill: #029e73"/>
   </g>
   <g id="patch_116">
    <path d="M 409.8596 165.321025 
L 413.431616 165.321025 
L 413.431616 34.342863 
L 409.8596 34.342863 
z
" clip-path="url(#pb392e9fb0f)" style="fill: #029e73"/>
   </g>
   <g id="patch_117">
    <path d="M 441.114744 165.321025 
L 444.686761 165.321025 
L 444.686761 34.292433 
L 441.114744 34.292433 
z
" clip-path="url(#pb392e9fb0f)" style="fill: #029e73"/>
   </g>
   <g id="patch_118">
    <path d="M 472.369889 165.321025 
L 475.941905 165.321025 
L 475.941905 42.119484 
L 472.369889 42.119484 
z
" clip-path="url(#pb392e9fb0f)" style="fill: #029e73"/>
   </g>
   <g id="patch_119">
    <path d="M 503.625033 165.321025 
L 507.19705 165.321025 
L 507.19705 42.189884 
L 503.625033 42.189884 
z
" clip-path="url(#pb392e9fb0f)" style="fill: #029e73"/>
   </g>
   <g id="patch_120">
    <path d="M 534.880178 165.321025 
L 538.452194 165.321025 
L 538.452194 32.513645 
L 534.880178 32.513645 
z
" clip-path="url(#pb392e9fb0f)" style="fill: #029e73"/>
   </g>
   <g id="patch_121">
    <path d="M 566.135322 165.321025 
L 569.707339 165.321025 
L 569.707339 36.017701 
L 566.135322 36.017701 
z
" clip-path="url(#pb392e9fb0f)" style="fill: #029e73"/>
   </g>
   <g id="matplotlib.axis_1">
    <g id="xtick_1">
     <g id="line2d_1">
      <defs>
       <path id="m67912c790d" d="M 0 0 
L 0 3.5 
" style="stroke: #000000; stroke-width: 0.8"/>
      </defs>
      <g>
       <use xlink:href="#m67912c790d" x="57.122969" y="165.321025" style="stroke: #000000; stroke-width: 0.8"/>
      </g>
     </g>
     <g id="text_1">
      <!-- 1 -->
      <g transform="translate(53.432719 181.135212) scale(0.116 -0.116)">
       <defs>
        <path id="DejaVuSans-31" d="M 794 531 
L 1825 531 
L 1825 4091 
L 703 3866 
L 703 4441 
L 1819 4666 
L 2450 4666 
L 2450 531 
L 3481 531 
L 3481 0 
L 794 0 
L 794 531 
z
" transform="scale(0.015625)"/>
       </defs>
       <use xlink:href="#DejaVuSans-31"/>
      </g>
     </g>
    </g>
    <g id="xtick_2">
     <g id="line2d_2">
      <g>
       <use xlink:href="#m67912c790d" x="88.378113" y="165.321025" style="stroke: #000000; stroke-width: 0.8"/>
      </g>
     </g>
     <g id="text_2">
      <!-- 2 -->
      <g transform="translate(84.687863 181.135212) scale(0.116 -0.116)">
       <defs>
        <path id="DejaVuSans-32" d="M 1228 531 
L 3431 531 
L 3431 0 
L 469 0 
L 469 531 
Q 828 903 1448 1529 
Q 2069 2156 2228 2338 
Q 2531 2678 2651 2914 
Q 2772 3150 2772 3378 
Q 2772 3750 2511 3984 
Q 2250 4219 1831 4219 
Q 1534 4219 1204 4116 
Q 875 4013 500 3803 
L 500 4441 
Q 881 4594 1212 4672 
Q 1544 4750 1819 4750 
Q 2544 4750 2975 4387 
Q 3406 4025 3406 3419 
Q 3406 3131 3298 2873 
Q 3191 2616 2906 2266 
Q 2828 2175 2409 1742 
Q 1991 1309 1228 531 
z
" transform="scale(0.015625)"/>
       </defs>
       <use xlink:href="#DejaVuSans-32"/>
      </g>
     </g>
    </g>
    <g id="xtick_3">
     <g id="line2d_3">
      <g>
       <use xlink:href="#m67912c790d" x="119.633258" y="165.321025" style="stroke: #000000; stroke-width: 0.8"/>
      </g>
     </g>
     <g id="text_3">
      <!-- 3 -->
      <g transform="translate(115.943008 181.135212) scale(0.116 -0.116)">
       <defs>
        <path id="DejaVuSans-33" d="M 2597 2516 
Q 3050 2419 3304 2112 
Q 3559 1806 3559 1356 
Q 3559 666 3084 287 
Q 2609 -91 1734 -91 
Q 1441 -91 1130 -33 
Q 819 25 488 141 
L 488 750 
Q 750 597 1062 519 
Q 1375 441 1716 441 
Q 2309 441 2620 675 
Q 2931 909 2931 1356 
Q 2931 1769 2642 2001 
Q 2353 2234 1838 2234 
L 1294 2234 
L 1294 2753 
L 1863 2753 
Q 2328 2753 2575 2939 
Q 2822 3125 2822 3475 
Q 2822 3834 2567 4026 
Q 2313 4219 1838 4219 
Q 1578 4219 1281 4162 
Q 984 4106 628 3988 
L 628 4550 
Q 988 4650 1302 4700 
Q 1616 4750 1894 4750 
Q 2613 4750 3031 4423 
Q 3450 4097 3450 3541 
Q 3450 3153 3228 2886 
Q 3006 2619 2597 2516 
z
" transform="scale(0.015625)"/>
       </defs>
       <use xlink:href="#DejaVuSans-33"/>
      </g>
     </g>
    </g>
    <g id="xtick_4">
     <g id="line2d_4">
      <g>
       <use xlink:href="#m67912c790d" x="150.888402" y="165.321025" style="stroke: #000000; stroke-width: 0.8"/>
      </g>
     </g>
     <g id="text_4">
      <!-- 4 -->
      <g transform="translate(147.198152 181.135212) scale(0.116 -0.116)">
       <defs>
        <path id="DejaVuSans-34" d="M 2419 4116 
L 825 1625 
L 2419 1625 
L 2419 4116 
z
M 2253 4666 
L 3047 4666 
L 3047 1625 
L 3713 1625 
L 3713 1100 
L 3047 1100 
L 3047 0 
L 2419 0 
L 2419 1100 
L 313 1100 
L 313 1709 
L 2253 4666 
z
" transform="scale(0.015625)"/>
       </defs>
       <use xlink:href="#DejaVuSans-34"/>
      </g>
     </g>
    </g>
    <g id="xtick_5">
     <g id="line2d_5">
      <g>
       <use xlink:href="#m67912c790d" x="182.143547" y="165.321025" style="stroke: #000000; stroke-width: 0.8"/>
      </g>
     </g>
     <g id="text_5">
      <!-- 5 -->
      <g transform="translate(178.453297 181.135212) scale(0.116 -0.116)">
       <defs>
        <path id="DejaVuSans-35" d="M 691 4666 
L 3169 4666 
L 3169 4134 
L 1269 4134 
L 1269 2991 
Q 1406 3038 1543 3061 
Q 1681 3084 1819 3084 
Q 2600 3084 3056 2656 
Q 3513 2228 3513 1497 
Q 3513 744 3044 326 
Q 2575 -91 1722 -91 
Q 1428 -91 1123 -41 
Q 819 9 494 109 
L 494 744 
Q 775 591 1075 516 
Q 1375 441 1709 441 
Q 2250 441 2565 725 
Q 2881 1009 2881 1497 
Q 2881 1984 2565 2268 
Q 2250 2553 1709 2553 
Q 1456 2553 1204 2497 
Q 953 2441 691 2322 
L 691 4666 
z
" transform="scale(0.015625)"/>
       </defs>
       <use xlink:href="#DejaVuSans-35"/>
      </g>
     </g>
    </g>
    <g id="xtick_6">
     <g id="line2d_6">
      <g>
       <use xlink:href="#m67912c790d" x="213.398691" y="165.321025" style="stroke: #000000; stroke-width: 0.8"/>
      </g>
     </g>
     <g id="text_6">
      <!-- 6 -->
      <g transform="translate(209.708441 181.135212) scale(0.116 -0.116)">
       <defs>
        <path id="DejaVuSans-36" d="M 2113 2584 
Q 1688 2584 1439 2293 
Q 1191 2003 1191 1497 
Q 1191 994 1439 701 
Q 1688 409 2113 409 
Q 2538 409 2786 701 
Q 3034 994 3034 1497 
Q 3034 2003 2786 2293 
Q 2538 2584 2113 2584 
z
M 3366 4563 
L 3366 3988 
Q 3128 4100 2886 4159 
Q 2644 4219 2406 4219 
Q 1781 4219 1451 3797 
Q 1122 3375 1075 2522 
Q 1259 2794 1537 2939 
Q 1816 3084 2150 3084 
Q 2853 3084 3261 2657 
Q 3669 2231 3669 1497 
Q 3669 778 3244 343 
Q 2819 -91 2113 -91 
Q 1303 -91 875 529 
Q 447 1150 447 2328 
Q 447 3434 972 4092 
Q 1497 4750 2381 4750 
Q 2619 4750 2861 4703 
Q 3103 4656 3366 4563 
z
" transform="scale(0.015625)"/>
       </defs>
       <use xlink:href="#DejaVuSans-36"/>
      </g>
     </g>
    </g>
    <g id="xtick_7">
     <g id="line2d_7">
      <g>
       <use xlink:href="#m67912c790d" x="244.653836" y="165.321025" style="stroke: #000000; stroke-width: 0.8"/>
      </g>
     </g>
     <g id="text_7">
      <!-- 7 -->
      <g transform="translate(240.963586 181.135212) scale(0.116 -0.116)">
       <defs>
        <path id="DejaVuSans-37" d="M 525 4666 
L 3525 4666 
L 3525 4397 
L 1831 0 
L 1172 0 
L 2766 4134 
L 525 4134 
L 525 4666 
z
" transform="scale(0.015625)"/>
       </defs>
       <use xlink:href="#DejaVuSans-37"/>
      </g>
     </g>
    </g>
    <g id="xtick_8">
     <g id="line2d_8">
      <g>
       <use xlink:href="#m67912c790d" x="275.90898" y="165.321025" style="stroke: #000000; stroke-width: 0.8"/>
      </g>
     </g>
     <g id="text_8">
      <!-- 8 -->
      <g transform="translate(272.21873 181.135212) scale(0.116 -0.116)">
       <defs>
        <path id="DejaVuSans-38" d="M 2034 2216 
Q 1584 2216 1326 1975 
Q 1069 1734 1069 1313 
Q 1069 891 1326 650 
Q 1584 409 2034 409 
Q 2484 409 2743 651 
Q 3003 894 3003 1313 
Q 3003 1734 2745 1975 
Q 2488 2216 2034 2216 
z
M 1403 2484 
Q 997 2584 770 2862 
Q 544 3141 544 3541 
Q 544 4100 942 4425 
Q 1341 4750 2034 4750 
Q 2731 4750 3128 4425 
Q 3525 4100 3525 3541 
Q 3525 3141 3298 2862 
Q 3072 2584 2669 2484 
Q 3125 2378 3379 2068 
Q 3634 1759 3634 1313 
Q 3634 634 3220 271 
Q 2806 -91 2034 -91 
Q 1263 -91 848 271 
Q 434 634 434 1313 
Q 434 1759 690 2068 
Q 947 2378 1403 2484 
z
M 1172 3481 
Q 1172 3119 1398 2916 
Q 1625 2713 2034 2713 
Q 2441 2713 2670 2916 
Q 2900 3119 2900 3481 
Q 2900 3844 2670 4047 
Q 2441 4250 2034 4250 
Q 1625 4250 1398 4047 
Q 1172 3844 1172 3481 
z
" transform="scale(0.015625)"/>
       </defs>
       <use xlink:href="#DejaVuSans-38"/>
      </g>
     </g>
    </g>
    <g id="xtick_9">
     <g id="line2d_9">
      <g>
       <use xlink:href="#m67912c790d" x="307.164125" y="165.321025" style="stroke: #000000; stroke-width: 0.8"/>
      </g>
     </g>
     <g id="text_9">
      <!-- 9 -->
      <g transform="translate(303.473875 181.135212) scale(0.116 -0.116)">
       <defs>
        <path id="DejaVuSans-39" d="M 703 97 
L 703 672 
Q 941 559 1184 500 
Q 1428 441 1663 441 
Q 2288 441 2617 861 
Q 2947 1281 2994 2138 
Q 2813 1869 2534 1725 
Q 2256 1581 1919 1581 
Q 1219 1581 811 2004 
Q 403 2428 403 3163 
Q 403 3881 828 4315 
Q 1253 4750 1959 4750 
Q 2769 4750 3195 4129 
Q 3622 3509 3622 2328 
Q 3622 1225 3098 567 
Q 2575 -91 1691 -91 
Q 1453 -91 1209 -44 
Q 966 3 703 97 
z
M 1959 2075 
Q 2384 2075 2632 2365 
Q 2881 2656 2881 3163 
Q 2881 3666 2632 3958 
Q 2384 4250 1959 4250 
Q 1534 4250 1286 3958 
Q 1038 3666 1038 3163 
Q 1038 2656 1286 2365 
Q 1534 2075 1959 2075 
z
" transform="scale(0.015625)"/>
       </defs>
       <use xlink:href="#DejaVuSans-39"/>
      </g>
     </g>
    </g>
    <g id="xtick_10">
     <g id="line2d_10">
      <g>
       <use xlink:href="#m67912c790d" x="338.41927" y="165.321025" style="stroke: #000000; stroke-width: 0.8"/>
      </g>
     </g>
     <g id="text_10">
      <!-- 10 -->
      <g transform="translate(331.03877 181.135212) scale(0.116 -0.116)">
       <defs>
        <path id="DejaVuSans-30" d="M 2034 4250 
Q 1547 4250 1301 3770 
Q 1056 3291 1056 2328 
Q 1056 1369 1301 889 
Q 1547 409 2034 409 
Q 2525 409 2770 889 
Q 3016 1369 3016 2328 
Q 3016 3291 2770 3770 
Q 2525 4250 2034 4250 
z
M 2034 4750 
Q 2819 4750 3233 4129 
Q 3647 3509 3647 2328 
Q 3647 1150 3233 529 
Q 2819 -91 2034 -91 
Q 1250 -91 836 529 
Q 422 1150 422 2328 
Q 422 3509 836 4129 
Q 1250 4750 2034 4750 
z
" transform="scale(0.015625)"/>
       </defs>
       <use xlink:href="#DejaVuSans-31"/>
       <use xlink:href="#DejaVuSans-30" transform="translate(63.623047 0)"/>
      </g>
     </g>
    </g>
    <g id="xtick_11">
     <g id="line2d_11">
      <g>
       <use xlink:href="#m67912c790d" x="369.674414" y="165.321025" style="stroke: #000000; stroke-width: 0.8"/>
      </g>
     </g>
     <g id="text_11">
      <!-- 11 -->
      <g transform="translate(362.293914 181.135212) scale(0.116 -0.116)">
       <use xlink:href="#DejaVuSans-31"/>
       <use xlink:href="#DejaVuSans-31" transform="translate(63.623047 0)"/>
      </g>
     </g>
    </g>
    <g id="xtick_12">
     <g id="line2d_12">
      <g>
       <use xlink:href="#m67912c790d" x="400.929559" y="165.321025" style="stroke: #000000; stroke-width: 0.8"/>
      </g>
     </g>
     <g id="text_12">
      <!-- 12 -->
      <g transform="translate(393.549059 181.135212) scale(0.116 -0.116)">
       <use xlink:href="#DejaVuSans-31"/>
       <use xlink:href="#DejaVuSans-32" transform="translate(63.623047 0)"/>
      </g>
     </g>
    </g>
    <g id="xtick_13">
     <g id="line2d_13">
      <g>
       <use xlink:href="#m67912c790d" x="432.184703" y="165.321025" style="stroke: #000000; stroke-width: 0.8"/>
      </g>
     </g>
     <g id="text_13">
      <!-- 13 -->
      <g transform="translate(424.804203 181.135212) scale(0.116 -0.116)">
       <use xlink:href="#DejaVuSans-31"/>
       <use xlink:href="#DejaVuSans-33" transform="translate(63.623047 0)"/>
      </g>
     </g>
    </g>
    <g id="xtick_14">
     <g id="line2d_14">
      <g>
       <use xlink:href="#m67912c790d" x="463.439848" y="165.321025" style="stroke: #000000; stroke-width: 0.8"/>
      </g>
     </g>
     <g id="text_14">
      <!-- 14 -->
      <g transform="translate(456.059348 181.135212) scale(0.116 -0.116)">
       <use xlink:href="#DejaVuSans-31"/>
       <use xlink:href="#DejaVuSans-34" transform="translate(63.623047 0)"/>
      </g>
     </g>
    </g>
    <g id="xtick_15">
     <g id="line2d_15">
      <g>
       <use xlink:href="#m67912c790d" x="494.694992" y="165.321025" style="stroke: #000000; stroke-width: 0.8"/>
      </g>
     </g>
     <g id="text_15">
      <!-- 15 -->
      <g transform="translate(487.314492 181.135212) scale(0.116 -0.116)">
       <use xlink:href="#DejaVuSans-31"/>
       <use xlink:href="#DejaVuSans-35" transform="translate(63.623047 0)"/>
      </g>
     </g>
    </g>
    <g id="xtick_16">
     <g id="line2d_16">
      <g>
       <use xlink:href="#m67912c790d" x="525.950137" y="165.321025" style="stroke: #000000; stroke-width: 0.8"/>
      </g>
     </g>
     <g id="text_16">
      <!-- 16 -->
      <g transform="translate(518.569637 181.135212) scale(0.116 -0.116)">
       <use xlink:href="#DejaVuSans-31"/>
       <use xlink:href="#DejaVuSans-36" transform="translate(63.623047 0)"/>
      </g>
     </g>
    </g>
    <g id="xtick_17">
     <g id="line2d_17">
      <g>
       <use xlink:href="#m67912c790d" x="557.205281" y="165.321025" style="stroke: #000000; stroke-width: 0.8"/>
      </g>
     </g>
     <g id="text_17">
      <!-- 17 -->
      <g transform="translate(549.824781 181.135212) scale(0.116 -0.116)">
       <use xlink:href="#DejaVuSans-31"/>
       <use xlink:href="#DejaVuSans-37" transform="translate(63.623047 0)"/>
      </g>
     </g>
    </g>
    <g id="text_18">
     <!-- ROI -->
     <g transform="translate(296.857344 196.361837) scale(0.116 -0.116)">
      <defs>
       <path id="DejaVuSans-52" d="M 2841 2188 
Q 3044 2119 3236 1894 
Q 3428 1669 3622 1275 
L 4263 0 
L 3584 0 
L 2988 1197 
Q 2756 1666 2539 1819 
Q 2322 1972 1947 1972 
L 1259 1972 
L 1259 0 
L 628 0 
L 628 4666 
L 2053 4666 
Q 2853 4666 3247 4331 
Q 3641 3997 3641 3322 
Q 3641 2881 3436 2590 
Q 3231 2300 2841 2188 
z
M 1259 4147 
L 1259 2491 
L 2053 2491 
Q 2509 2491 2742 2702 
Q 2975 2913 2975 3322 
Q 2975 3731 2742 3939 
Q 2509 4147 2053 4147 
L 1259 4147 
z
" transform="scale(0.015625)"/>
       <path id="DejaVuSans-4f" d="M 2522 4238 
Q 1834 4238 1429 3725 
Q 1025 3213 1025 2328 
Q 1025 1447 1429 934 
Q 1834 422 2522 422 
Q 3209 422 3611 934 
Q 4013 1447 4013 2328 
Q 4013 3213 3611 3725 
Q 3209 4238 2522 4238 
z
M 2522 4750 
Q 3503 4750 4090 4092 
Q 4678 3434 4678 2328 
Q 4678 1225 4090 567 
Q 3503 -91 2522 -91 
Q 1538 -91 948 565 
Q 359 1222 359 2328 
Q 359 3434 948 4092 
Q 1538 4750 2522 4750 
z
" transform="scale(0.015625)"/>
       <path id="DejaVuSans-49" d="M 628 4666 
L 1259 4666 
L 1259 0 
L 628 0 
L 628 4666 
z
" transform="scale(0.015625)"/>
      </defs>
      <use xlink:href="#DejaVuSans-52"/>
      <use xlink:href="#DejaVuSans-4f" transform="translate(69.482422 0)"/>
      <use xlink:href="#DejaVuSans-49" transform="translate(148.193359 0)"/>
     </g>
    </g>
   </g>
   <g id="matplotlib.axis_2">
    <g id="ytick_1">
     <g id="line2d_18">
      <defs>
       <path id="m4d7404d08e" d="M 0 0 
L -3.5 0 
" style="stroke: #000000; stroke-width: 0.8"/>
      </defs>
      <g>
       <use xlink:href="#m4d7404d08e" x="36.807125" y="165.321025" style="stroke: #000000; stroke-width: 0.8"/>
      </g>
     </g>
     <g id="text_19">
      <!-- 0 -->
      <g transform="translate(22.426625 169.728119) scale(0.116 -0.116)">
       <use xlink:href="#DejaVuSans-30"/>
      </g>
     </g>
    </g>
    <g id="ytick_2">
     <g id="line2d_19">
      <g>
       <use xlink:href="#m4d7404d08e" x="36.807125" y="138.61461" style="stroke: #000000; stroke-width: 0.8"/>
      </g>
     </g>
     <g id="text_20">
      <!-- 1 -->
      <g transform="translate(22.426625 143.021704) scale(0.116 -0.116)">
       <use xlink:href="#DejaVuSans-31"/>
      </g>
     </g>
    </g>
    <g id="ytick_3">
     <g id="line2d_20">
      <g>
       <use xlink:href="#m4d7404d08e" x="36.807125" y="111.908195" style="stroke: #000000; stroke-width: 0.8"/>
      </g>
     </g>
     <g id="text_21">
      <!-- 2 -->
      <g transform="translate(22.426625 116.315289) scale(0.116 -0.116)">
       <use xlink:href="#DejaVuSans-32"/>
      </g>
     </g>
    </g>
    <g id="ytick_4">
     <g id="line2d_21">
      <g>
       <use xlink:href="#m4d7404d08e" x="36.807125" y="85.20178" style="stroke: #000000; stroke-width: 0.8"/>
      </g>
     </g>
     <g id="text_22">
      <!-- 3 -->
      <g transform="translate(22.426625 89.608873) scale(0.116 -0.116)">
       <use xlink:href="#DejaVuSans-33"/>
      </g>
     </g>
    </g>
    <g id="ytick_5">
     <g id="line2d_22">
      <g>
       <use xlink:href="#m4d7404d08e" x="36.807125" y="58.495365" style="stroke: #000000; stroke-width: 0.8"/>
      </g>
     </g>
     <g id="text_23">
      <!-- 4 -->
      <g transform="translate(22.426625 62.902458) scale(0.116 -0.116)">
       <use xlink:href="#DejaVuSans-34"/>
      </g>
     </g>
    </g>
    <g id="ytick_6">
     <g id="line2d_23">
      <g>
       <use xlink:href="#m4d7404d08e" x="36.807125" y="31.78895" style="stroke: #000000; stroke-width: 0.8"/>
      </g>
     </g>
     <g id="text_24">
      <!-- 5 -->
      <g transform="translate(22.426625 36.196043) scale(0.116 -0.116)">
       <use xlink:href="#DejaVuSans-35"/>
      </g>
     </g>
    </g>
    <g id="text_25">
     <!-- Mean Dwelling Time -->
     <g transform="translate(16.014187 153.199712) rotate(-90) scale(0.116 -0.116)">
      <defs>
       <path id="DejaVuSans-4d" d="M 628 4666 
L 1569 4666 
L 2759 1491 
L 3956 4666 
L 4897 4666 
L 4897 0 
L 4281 0 
L 4281 4097 
L 3078 897 
L 2444 897 
L 1241 4097 
L 1241 0 
L 628 0 
L 628 4666 
z
" transform="scale(0.015625)"/>
       <path id="DejaVuSans-65" d="M 3597 1894 
L 3597 1613 
L 953 1613 
Q 991 1019 1311 708 
Q 1631 397 2203 397 
Q 2534 397 2845 478 
Q 3156 559 3463 722 
L 3463 178 
Q 3153 47 2828 -22 
Q 2503 -91 2169 -91 
Q 1331 -91 842 396 
Q 353 884 353 1716 
Q 353 2575 817 3079 
Q 1281 3584 2069 3584 
Q 2775 3584 3186 3129 
Q 3597 2675 3597 1894 
z
M 3022 2063 
Q 3016 2534 2758 2815 
Q 2500 3097 2075 3097 
Q 1594 3097 1305 2825 
Q 1016 2553 972 2059 
L 3022 2063 
z
" transform="scale(0.015625)"/>
       <path id="DejaVuSans-61" d="M 2194 1759 
Q 1497 1759 1228 1600 
Q 959 1441 959 1056 
Q 959 750 1161 570 
Q 1363 391 1709 391 
Q 2188 391 2477 730 
Q 2766 1069 2766 1631 
L 2766 1759 
L 2194 1759 
z
M 3341 1997 
L 3341 0 
L 2766 0 
L 2766 531 
Q 2569 213 2275 61 
Q 1981 -91 1556 -91 
Q 1019 -91 701 211 
Q 384 513 384 1019 
Q 384 1609 779 1909 
Q 1175 2209 1959 2209 
L 2766 2209 
L 2766 2266 
Q 2766 2663 2505 2880 
Q 2244 3097 1772 3097 
Q 1472 3097 1187 3025 
Q 903 2953 641 2809 
L 641 3341 
Q 956 3463 1253 3523 
Q 1550 3584 1831 3584 
Q 2591 3584 2966 3190 
Q 3341 2797 3341 1997 
z
" transform="scale(0.015625)"/>
       <path id="DejaVuSans-6e" d="M 3513 2113 
L 3513 0 
L 2938 0 
L 2938 2094 
Q 2938 2591 2744 2837 
Q 2550 3084 2163 3084 
Q 1697 3084 1428 2787 
Q 1159 2491 1159 1978 
L 1159 0 
L 581 0 
L 581 3500 
L 1159 3500 
L 1159 2956 
Q 1366 3272 1645 3428 
Q 1925 3584 2291 3584 
Q 2894 3584 3203 3211 
Q 3513 2838 3513 2113 
z
" transform="scale(0.015625)"/>
       <path id="DejaVuSans-20" transform="scale(0.015625)"/>
       <path id="DejaVuSans-44" d="M 1259 4147 
L 1259 519 
L 2022 519 
Q 2988 519 3436 956 
Q 3884 1394 3884 2338 
Q 3884 3275 3436 3711 
Q 2988 4147 2022 4147 
L 1259 4147 
z
M 628 4666 
L 1925 4666 
Q 3281 4666 3915 4102 
Q 4550 3538 4550 2338 
Q 4550 1131 3912 565 
Q 3275 0 1925 0 
L 628 0 
L 628 4666 
z
" transform="scale(0.015625)"/>
       <path id="DejaVuSans-77" d="M 269 3500 
L 844 3500 
L 1563 769 
L 2278 3500 
L 2956 3500 
L 3675 769 
L 4391 3500 
L 4966 3500 
L 4050 0 
L 3372 0 
L 2619 2869 
L 1863 0 
L 1184 0 
L 269 3500 
z
" transform="scale(0.015625)"/>
       <path id="DejaVuSans-6c" d="M 603 4863 
L 1178 4863 
L 1178 0 
L 603 0 
L 603 4863 
z
" transform="scale(0.015625)"/>
       <path id="DejaVuSans-69" d="M 603 3500 
L 1178 3500 
L 1178 0 
L 603 0 
L 603 3500 
z
M 603 4863 
L 1178 4863 
L 1178 4134 
L 603 4134 
L 603 4863 
z
" transform="scale(0.015625)"/>
       <path id="DejaVuSans-67" d="M 2906 1791 
Q 2906 2416 2648 2759 
Q 2391 3103 1925 3103 
Q 1463 3103 1205 2759 
Q 947 2416 947 1791 
Q 947 1169 1205 825 
Q 1463 481 1925 481 
Q 2391 481 2648 825 
Q 2906 1169 2906 1791 
z
M 3481 434 
Q 3481 -459 3084 -895 
Q 2688 -1331 1869 -1331 
Q 1566 -1331 1297 -1286 
Q 1028 -1241 775 -1147 
L 775 -588 
Q 1028 -725 1275 -790 
Q 1522 -856 1778 -856 
Q 2344 -856 2625 -561 
Q 2906 -266 2906 331 
L 2906 616 
Q 2728 306 2450 153 
Q 2172 0 1784 0 
Q 1141 0 747 490 
Q 353 981 353 1791 
Q 353 2603 747 3093 
Q 1141 3584 1784 3584 
Q 2172 3584 2450 3431 
Q 2728 3278 2906 2969 
L 2906 3500 
L 3481 3500 
L 3481 434 
z
" transform="scale(0.015625)"/>
       <path id="DejaVuSans-54" d="M -19 4666 
L 3928 4666 
L 3928 4134 
L 2272 4134 
L 2272 0 
L 1638 0 
L 1638 4134 
L -19 4134 
L -19 4666 
z
" transform="scale(0.015625)"/>
       <path id="DejaVuSans-6d" d="M 3328 2828 
Q 3544 3216 3844 3400 
Q 4144 3584 4550 3584 
Q 5097 3584 5394 3201 
Q 5691 2819 5691 2113 
L 5691 0 
L 5113 0 
L 5113 2094 
Q 5113 2597 4934 2840 
Q 4756 3084 4391 3084 
Q 3944 3084 3684 2787 
Q 3425 2491 3425 1978 
L 3425 0 
L 2847 0 
L 2847 2094 
Q 2847 2600 2669 2842 
Q 2491 3084 2119 3084 
Q 1678 3084 1418 2786 
Q 1159 2488 1159 1978 
L 1159 0 
L 581 0 
L 581 3500 
L 1159 3500 
L 1159 2956 
Q 1356 3278 1631 3431 
Q 1906 3584 2284 3584 
Q 2666 3584 2933 3390 
Q 3200 3197 3328 2828 
z
" transform="scale(0.015625)"/>
      </defs>
      <use xlink:href="#DejaVuSans-4d"/>
      <use xlink:href="#DejaVuSans-65" transform="translate(86.279297 0)"/>
      <use xlink:href="#DejaVuSans-61" transform="translate(147.802734 0)"/>
      <use xlink:href="#DejaVuSans-6e" transform="translate(209.082031 0)"/>
      <use xlink:href="#DejaVuSans-20" transform="translate(272.460938 0)"/>
      <use xlink:href="#DejaVuSans-44" transform="translate(304.248047 0)"/>
      <use xlink:href="#DejaVuSans-77" transform="translate(381.25 0)"/>
      <use xlink:href="#DejaVuSans-65" transform="translate(463.037109 0)"/>
      <use xlink:href="#DejaVuSans-6c" transform="translate(524.560547 0)"/>
      <use xlink:href="#DejaVuSans-6c" transform="translate(552.34375 0)"/>
      <use xlink:href="#DejaVuSans-69" transform="translate(580.126953 0)"/>
      <use xlink:href="#DejaVuSans-6e" transform="translate(607.910156 0)"/>
      <use xlink:href="#DejaVuSans-67" transform="translate(671.289062 0)"/>
      <use xlink:href="#DejaVuSans-20" transform="translate(734.765625 0)"/>
      <use xlink:href="#DejaVuSans-54" transform="translate(766.552734 0)"/>
      <use xlink:href="#DejaVuSans-69" transform="translate(824.511719 0)"/>
      <use xlink:href="#DejaVuSans-6d" transform="translate(852.294922 0)"/>
      <use xlink:href="#DejaVuSans-65" transform="translate(949.707031 0)"/>
     </g>
    </g>
   </g>
   <g id="patch_122">
    <path d="M 36.807125 165.321025 
L 36.807125 23.777025 
" style="fill: none; stroke: #000000; stroke-width: 0.8; stroke-linejoin: miter; stroke-linecap: square"/>
   </g>
   <g id="patch_123">
    <path d="M 577.521125 165.321025 
L 577.521125 23.777025 
" style="fill: none; stroke: #000000; stroke-width: 0.8; stroke-linejoin: miter; stroke-linecap: square"/>
   </g>
   <g id="patch_124">
    <path d="M 36.807125 165.321025 
L 577.521125 165.321025 
" style="fill: none; stroke: #000000; stroke-width: 0.8; stroke-linejoin: miter; stroke-linecap: square"/>
   </g>
   <g id="patch_125">
    <path d="M 36.807125 23.777025 
L 577.521125 23.777025 
" style="fill: none; stroke: #000000; stroke-width: 0.8; stroke-linejoin: miter; stroke-linecap: square"/>
   </g>
   <g id="text_26">
    <!-- Mean Dwelling Time by Region and Group -->
    <g transform="translate(161.290137 17.777025) scale(0.1392 -0.1392)">
     <defs>
      <path id="DejaVuSans-62" d="M 3116 1747 
Q 3116 2381 2855 2742 
Q 2594 3103 2138 3103 
Q 1681 3103 1420 2742 
Q 1159 2381 1159 1747 
Q 1159 1113 1420 752 
Q 1681 391 2138 391 
Q 2594 391 2855 752 
Q 3116 1113 3116 1747 
z
M 1159 2969 
Q 1341 3281 1617 3432 
Q 1894 3584 2278 3584 
Q 2916 3584 3314 3078 
Q 3713 2572 3713 1747 
Q 3713 922 3314 415 
Q 2916 -91 2278 -91 
Q 1894 -91 1617 61 
Q 1341 213 1159 525 
L 1159 0 
L 581 0 
L 581 4863 
L 1159 4863 
L 1159 2969 
z
" transform="scale(0.015625)"/>
      <path id="DejaVuSans-79" d="M 2059 -325 
Q 1816 -950 1584 -1140 
Q 1353 -1331 966 -1331 
L 506 -1331 
L 506 -850 
L 844 -850 
Q 1081 -850 1212 -737 
Q 1344 -625 1503 -206 
L 1606 56 
L 191 3500 
L 800 3500 
L 1894 763 
L 2988 3500 
L 3597 3500 
L 2059 -325 
z
" transform="scale(0.015625)"/>
      <path id="DejaVuSans-6f" d="M 1959 3097 
Q 1497 3097 1228 2736 
Q 959 2375 959 1747 
Q 959 1119 1226 758 
Q 1494 397 1959 397 
Q 2419 397 2687 759 
Q 2956 1122 2956 1747 
Q 2956 2369 2687 2733 
Q 2419 3097 1959 3097 
z
M 1959 3584 
Q 2709 3584 3137 3096 
Q 3566 2609 3566 1747 
Q 3566 888 3137 398 
Q 2709 -91 1959 -91 
Q 1206 -91 779 398 
Q 353 888 353 1747 
Q 353 2609 779 3096 
Q 1206 3584 1959 3584 
z
" transform="scale(0.015625)"/>
      <path id="DejaVuSans-64" d="M 2906 2969 
L 2906 4863 
L 3481 4863 
L 3481 0 
L 2906 0 
L 2906 525 
Q 2725 213 2448 61 
Q 2172 -91 1784 -91 
Q 1150 -91 751 415 
Q 353 922 353 1747 
Q 353 2572 751 3078 
Q 1150 3584 1784 3584 
Q 2172 3584 2448 3432 
Q 2725 3281 2906 2969 
z
M 947 1747 
Q 947 1113 1208 752 
Q 1469 391 1925 391 
Q 2381 391 2643 752 
Q 2906 1113 2906 1747 
Q 2906 2381 2643 2742 
Q 2381 3103 1925 3103 
Q 1469 3103 1208 2742 
Q 947 2381 947 1747 
z
" transform="scale(0.015625)"/>
      <path id="DejaVuSans-47" d="M 3809 666 
L 3809 1919 
L 2778 1919 
L 2778 2438 
L 4434 2438 
L 4434 434 
Q 4069 175 3628 42 
Q 3188 -91 2688 -91 
Q 1594 -91 976 548 
Q 359 1188 359 2328 
Q 359 3472 976 4111 
Q 1594 4750 2688 4750 
Q 3144 4750 3555 4637 
Q 3966 4525 4313 4306 
L 4313 3634 
Q 3963 3931 3569 4081 
Q 3175 4231 2741 4231 
Q 1884 4231 1454 3753 
Q 1025 3275 1025 2328 
Q 1025 1384 1454 906 
Q 1884 428 2741 428 
Q 3075 428 3337 486 
Q 3600 544 3809 666 
z
" transform="scale(0.015625)"/>
      <path id="DejaVuSans-72" d="M 2631 2963 
Q 2534 3019 2420 3045 
Q 2306 3072 2169 3072 
Q 1681 3072 1420 2755 
Q 1159 2438 1159 1844 
L 1159 0 
L 581 0 
L 581 3500 
L 1159 3500 
L 1159 2956 
Q 1341 3275 1631 3429 
Q 1922 3584 2338 3584 
Q 2397 3584 2469 3576 
Q 2541 3569 2628 3553 
L 2631 2963 
z
" transform="scale(0.015625)"/>
      <path id="DejaVuSans-75" d="M 544 1381 
L 544 3500 
L 1119 3500 
L 1119 1403 
Q 1119 906 1312 657 
Q 1506 409 1894 409 
Q 2359 409 2629 706 
Q 2900 1003 2900 1516 
L 2900 3500 
L 3475 3500 
L 3475 0 
L 2900 0 
L 2900 538 
Q 2691 219 2414 64 
Q 2138 -91 1772 -91 
Q 1169 -91 856 284 
Q 544 659 544 1381 
z
M 1991 3584 
L 1991 3584 
z
" transform="scale(0.015625)"/>
      <path id="DejaVuSans-70" d="M 1159 525 
L 1159 -1331 
L 581 -1331 
L 581 3500 
L 1159 3500 
L 1159 2969 
Q 1341 3281 1617 3432 
Q 1894 3584 2278 3584 
Q 2916 3584 3314 3078 
Q 3713 2572 3713 1747 
Q 3713 922 3314 415 
Q 2916 -91 2278 -91 
Q 1894 -91 1617 61 
Q 1341 213 1159 525 
z
M 3116 1747 
Q 3116 2381 2855 2742 
Q 2594 3103 2138 3103 
Q 1681 3103 1420 2742 
Q 1159 2381 1159 1747 
Q 1159 1113 1420 752 
Q 1681 391 2138 391 
Q 2594 391 2855 752 
Q 3116 1113 3116 1747 
z
" transform="scale(0.015625)"/>
     </defs>
     <use xlink:href="#DejaVuSans-4d"/>
     <use xlink:href="#DejaVuSans-65" transform="translate(86.279297 0)"/>
     <use xlink:href="#DejaVuSans-61" transform="translate(147.802734 0)"/>
     <use xlink:href="#DejaVuSans-6e" transform="translate(209.082031 0)"/>
     <use xlink:href="#DejaVuSans-20" transform="translate(272.460938 0)"/>
     <use xlink:href="#DejaVuSans-44" transform="translate(304.248047 0)"/>
     <use xlink:href="#DejaVuSans-77" transform="translate(381.25 0)"/>
     <use xlink:href="#DejaVuSans-65" transform="translate(463.037109 0)"/>
     <use xlink:href="#DejaVuSans-6c" transform="translate(524.560547 0)"/>
     <use xlink:href="#DejaVuSans-6c" transform="translate(552.34375 0)"/>
     <use xlink:href="#DejaVuSans-69" transform="translate(580.126953 0)"/>
     <use xlink:href="#DejaVuSans-6e" transform="translate(607.910156 0)"/>
     <use xlink:href="#DejaVuSans-67" transform="translate(671.289062 0)"/>
     <use xlink:href="#DejaVuSans-20" transform="translate(734.765625 0)"/>
     <use xlink:href="#DejaVuSans-54" transform="translate(766.552734 0)"/>
     <use xlink:href="#DejaVuSans-69" transform="translate(824.511719 0)"/>
     <use xlink:href="#DejaVuSans-6d" transform="translate(852.294922 0)"/>
     <use xlink:href="#DejaVuSans-65" transform="translate(949.707031 0)"/>
     <use xlink:href="#DejaVuSans-20" transform="translate(1011.230469 0)"/>
     <use xlink:href="#DejaVuSans-62" transform="translate(1043.017578 0)"/>
     <use xlink:href="#DejaVuSans-79" transform="translate(1106.494141 0)"/>
     <use xlink:href="#DejaVuSans-20" transform="translate(1165.673828 0)"/>
     <use xlink:href="#DejaVuSans-52" transform="translate(1197.460938 0)"/>
     <use xlink:href="#DejaVuSans-65" transform="translate(1262.443359 0)"/>
     <use xlink:href="#DejaVuSans-67" transform="translate(1323.966797 0)"/>
     <use xlink:href="#DejaVuSans-69" transform="translate(1387.443359 0)"/>
     <use xlink:href="#DejaVuSans-6f" transform="translate(1415.226562 0)"/>
     <use xlink:href="#DejaVuSans-6e" transform="translate(1476.408203 0)"/>
     <use xlink:href="#DejaVuSans-20" transform="translate(1539.787109 0)"/>
     <use xlink:href="#DejaVuSans-61" transform="translate(1571.574219 0)"/>
     <use xlink:href="#DejaVuSans-6e" transform="translate(1632.853516 0)"/>
     <use xlink:href="#DejaVuSans-64" transform="translate(1696.232422 0)"/>
     <use xlink:href="#DejaVuSans-20" transform="translate(1759.708984 0)"/>
     <use xlink:href="#DejaVuSans-47" transform="translate(1791.496094 0)"/>
     <use xlink:href="#DejaVuSans-72" transform="translate(1868.986328 0)"/>
     <use xlink:href="#DejaVuSans-6f" transform="translate(1907.849609 0)"/>
     <use xlink:href="#DejaVuSans-75" transform="translate(1969.03125 0)"/>
     <use xlink:href="#DejaVuSans-70" transform="translate(2032.410156 0)"/>
    </g>
   </g>
   <g id="legend_1">
    <g id="patch_126">
     <path d="M 587.961125 46.670025 
L 611.161125 46.670025 
L 611.161125 38.550025 
L 587.961125 38.550025 
z
" style="fill: #0173b2"/>
    </g>
    <g id="text_27">
     <!-- ADHD+ASD -->
     <g transform="translate(620.441125 46.670025) scale(0.116 -0.116)">
      <defs>
       <path id="DejaVuSans-41" d="M 2188 4044 
L 1331 1722 
L 3047 1722 
L 2188 4044 
z
M 1831 4666 
L 2547 4666 
L 4325 0 
L 3669 0 
L 3244 1197 
L 1141 1197 
L 716 0 
L 50 0 
L 1831 4666 
z
" transform="scale(0.015625)"/>
       <path id="DejaVuSans-48" d="M 628 4666 
L 1259 4666 
L 1259 2753 
L 3553 2753 
L 3553 4666 
L 4184 4666 
L 4184 0 
L 3553 0 
L 3553 2222 
L 1259 2222 
L 1259 0 
L 628 0 
L 628 4666 
z
" transform="scale(0.015625)"/>
       <path id="DejaVuSans-2b" d="M 2944 4013 
L 2944 2272 
L 4684 2272 
L 4684 1741 
L 2944 1741 
L 2944 0 
L 2419 0 
L 2419 1741 
L 678 1741 
L 678 2272 
L 2419 2272 
L 2419 4013 
L 2944 4013 
z
" transform="scale(0.015625)"/>
       <path id="DejaVuSans-53" d="M 3425 4513 
L 3425 3897 
Q 3066 4069 2747 4153 
Q 2428 4238 2131 4238 
Q 1616 4238 1336 4038 
Q 1056 3838 1056 3469 
Q 1056 3159 1242 3001 
Q 1428 2844 1947 2747 
L 2328 2669 
Q 3034 2534 3370 2195 
Q 3706 1856 3706 1288 
Q 3706 609 3251 259 
Q 2797 -91 1919 -91 
Q 1588 -91 1214 -16 
Q 841 59 441 206 
L 441 856 
Q 825 641 1194 531 
Q 1563 422 1919 422 
Q 2459 422 2753 634 
Q 3047 847 3047 1241 
Q 3047 1584 2836 1778 
Q 2625 1972 2144 2069 
L 1759 2144 
Q 1053 2284 737 2584 
Q 422 2884 422 3419 
Q 422 4038 858 4394 
Q 1294 4750 2059 4750 
Q 2388 4750 2728 4690 
Q 3069 4631 3425 4513 
z
" transform="scale(0.015625)"/>
      </defs>
      <use xlink:href="#DejaVuSans-41"/>
      <use xlink:href="#DejaVuSans-44" transform="translate(68.408203 0)"/>
      <use xlink:href="#DejaVuSans-48" transform="translate(145.410156 0)"/>
      <use xlink:href="#DejaVuSans-44" transform="translate(220.605469 0)"/>
      <use xlink:href="#DejaVuSans-2b" transform="translate(297.607422 0)"/>
      <use xlink:href="#DejaVuSans-41" transform="translate(381.396484 0)"/>
      <use xlink:href="#DejaVuSans-53" transform="translate(449.804688 0)"/>
      <use xlink:href="#DejaVuSans-44" transform="translate(513.28125 0)"/>
     </g>
    </g>
    <g id="patch_127">
     <path d="M 587.961125 63.69665 
L 611.161125 63.69665 
L 611.161125 55.57665 
L 587.961125 55.57665 
z
" style="fill: #de8f05"/>
    </g>
    <g id="text_28">
     <!-- Other+ADHD -->
     <g transform="translate(620.441125 63.69665) scale(0.116 -0.116)">
      <defs>
       <path id="DejaVuSans-74" d="M 1172 4494 
L 1172 3500 
L 2356 3500 
L 2356 3053 
L 1172 3053 
L 1172 1153 
Q 1172 725 1289 603 
Q 1406 481 1766 481 
L 2356 481 
L 2356 0 
L 1766 0 
Q 1100 0 847 248 
Q 594 497 594 1153 
L 594 3053 
L 172 3053 
L 172 3500 
L 594 3500 
L 594 4494 
L 1172 4494 
z
" transform="scale(0.015625)"/>
       <path id="DejaVuSans-68" d="M 3513 2113 
L 3513 0 
L 2938 0 
L 2938 2094 
Q 2938 2591 2744 2837 
Q 2550 3084 2163 3084 
Q 1697 3084 1428 2787 
Q 1159 2491 1159 1978 
L 1159 0 
L 581 0 
L 581 4863 
L 1159 4863 
L 1159 2956 
Q 1366 3272 1645 3428 
Q 1925 3584 2291 3584 
Q 2894 3584 3203 3211 
Q 3513 2838 3513 2113 
z
" transform="scale(0.015625)"/>
      </defs>
      <use xlink:href="#DejaVuSans-4f"/>
      <use xlink:href="#DejaVuSans-74" transform="translate(78.710938 0)"/>
      <use xlink:href="#DejaVuSans-68" transform="translate(117.919922 0)"/>
      <use xlink:href="#DejaVuSans-65" transform="translate(181.298828 0)"/>
      <use xlink:href="#DejaVuSans-72" transform="translate(242.822266 0)"/>
      <use xlink:href="#DejaVuSans-2b" transform="translate(283.935547 0)"/>
      <use xlink:href="#DejaVuSans-41" transform="translate(367.724609 0)"/>
      <use xlink:href="#DejaVuSans-44" transform="translate(436.132812 0)"/>
      <use xlink:href="#DejaVuSans-48" transform="translate(513.134766 0)"/>
      <use xlink:href="#DejaVuSans-44" transform="translate(588.330078 0)"/>
     </g>
    </g>
    <g id="patch_128">
     <path d="M 587.961125 80.723275 
L 611.161125 80.723275 
L 611.161125 72.603275 
L 587.961125 72.603275 
z
" style="fill: #029e73"/>
    </g>
    <g id="text_29">
     <!-- Other+ASD -->
     <g transform="translate(620.441125 80.723275) scale(0.116 -0.116)">
      <use xlink:href="#DejaVuSans-4f"/>
      <use xlink:href="#DejaVuSans-74" transform="translate(78.710938 0)"/>
      <use xlink:href="#DejaVuSans-68" transform="translate(117.919922 0)"/>
      <use xlink:href="#DejaVuSans-65" transform="translate(181.298828 0)"/>
      <use xlink:href="#DejaVuSans-72" transform="translate(242.822266 0)"/>
      <use xlink:href="#DejaVuSans-2b" transform="translate(283.935547 0)"/>
      <use xlink:href="#DejaVuSans-41" transform="translate(367.724609 0)"/>
      <use xlink:href="#DejaVuSans-53" transform="translate(436.132812 0)"/>
      <use xlink:href="#DejaVuSans-44" transform="translate(499.609375 0)"/>
     </g>
    </g>
    <g id="patch_129">
     <path d="M 587.961125 97.7499 
L 611.161125 97.7499 
L 611.161125 89.6299 
L 587.961125 89.6299 
z
" style="fill: #d55e00"/>
    </g>
    <g id="text_30">
     <!-- Other+TD -->
     <g transform="translate(620.441125 97.7499) scale(0.116 -0.116)">
      <use xlink:href="#DejaVuSans-4f"/>
      <use xlink:href="#DejaVuSans-74" transform="translate(78.710938 0)"/>
      <use xlink:href="#DejaVuSans-68" transform="translate(117.919922 0)"/>
      <use xlink:href="#DejaVuSans-65" transform="translate(181.298828 0)"/>
      <use xlink:href="#DejaVuSans-72" transform="translate(242.822266 0)"/>
      <use xlink:href="#DejaVuSans-2b" transform="translate(283.935547 0)"/>
      <use xlink:href="#DejaVuSans-54" transform="translate(367.724609 0)"/>
      <use xlink:href="#DejaVuSans-44" transform="translate(428.808594 0)"/>
     </g>
    </g>
    <g id="patch_130">
     <path d="M 587.961125 114.776525 
L 611.161125 114.776525 
L 611.161125 106.656525 
L 587.961125 106.656525 
z
" style="fill: #0173b2"/>
    </g>
    <g id="text_31">
     <!-- Pure+ADHD -->
     <g transform="translate(620.441125 114.776525) scale(0.116 -0.116)">
      <defs>
       <path id="DejaVuSans-50" d="M 1259 4147 
L 1259 2394 
L 2053 2394 
Q 2494 2394 2734 2622 
Q 2975 2850 2975 3272 
Q 2975 3691 2734 3919 
Q 2494 4147 2053 4147 
L 1259 4147 
z
M 628 4666 
L 2053 4666 
Q 2838 4666 3239 4311 
Q 3641 3956 3641 3272 
Q 3641 2581 3239 2228 
Q 2838 1875 2053 1875 
L 1259 1875 
L 1259 0 
L 628 0 
L 628 4666 
z
" transform="scale(0.015625)"/>
      </defs>
      <use xlink:href="#DejaVuSans-50"/>
      <use xlink:href="#DejaVuSans-75" transform="translate(58.552734 0)"/>
      <use xlink:href="#DejaVuSans-72" transform="translate(121.931641 0)"/>
      <use xlink:href="#DejaVuSans-65" transform="translate(160.794922 0)"/>
      <use xlink:href="#DejaVuSans-2b" transform="translate(222.318359 0)"/>
      <use xlink:href="#DejaVuSans-41" transform="translate(306.107422 0)"/>
      <use xlink:href="#DejaVuSans-44" transform="translate(374.515625 0)"/>
      <use xlink:href="#DejaVuSans-48" transform="translate(451.517578 0)"/>
      <use xlink:href="#DejaVuSans-44" transform="translate(526.712891 0)"/>
     </g>
    </g>
    <g id="patch_131">
     <path d="M 587.961125 131.80315 
L 611.161125 131.80315 
L 611.161125 123.68315 
L 587.961125 123.68315 
z
" style="fill: #de8f05"/>
    </g>
    <g id="text_32">
     <!-- Pure+ASD -->
     <g transform="translate(620.441125 131.80315) scale(0.116 -0.116)">
      <use xlink:href="#DejaVuSans-50"/>
      <use xlink:href="#DejaVuSans-75" transform="translate(58.552734 0)"/>
      <use xlink:href="#DejaVuSans-72" transform="translate(121.931641 0)"/>
      <use xlink:href="#DejaVuSans-65" transform="translate(160.794922 0)"/>
      <use xlink:href="#DejaVuSans-2b" transform="translate(222.318359 0)"/>
      <use xlink:href="#DejaVuSans-41" transform="translate(306.107422 0)"/>
      <use xlink:href="#DejaVuSans-53" transform="translate(374.515625 0)"/>
      <use xlink:href="#DejaVuSans-44" transform="translate(437.992188 0)"/>
     </g>
    </g>
    <g id="patch_132">
     <path d="M 587.961125 148.829775 
L 611.161125 148.829775 
L 611.161125 140.709775 
L 587.961125 140.709775 
z
" style="fill: #029e73"/>
    </g>
    <g id="text_33">
     <!-- Pure+TD -->
     <g transform="translate(620.441125 148.829775) scale(0.116 -0.116)">
      <use xlink:href="#DejaVuSans-50"/>
      <use xlink:href="#DejaVuSans-75" transform="translate(58.552734 0)"/>
      <use xlink:href="#DejaVuSans-72" transform="translate(121.931641 0)"/>
      <use xlink:href="#DejaVuSans-65" transform="translate(160.794922 0)"/>
      <use xlink:href="#DejaVuSans-2b" transform="translate(222.318359 0)"/>
      <use xlink:href="#DejaVuSans-54" transform="translate(306.107422 0)"/>
      <use xlink:href="#DejaVuSans-44" transform="translate(367.191406 0)"/>
     </g>
    </g>
   </g>
  </g>
 </g>
 <defs>
  <clipPath id="pb392e9fb0f">
   <rect x="36.807125" y="23.777025" width="540.714" height="141.544"/>
  </clipPath>
 </defs>
</svg>
