<?xml version="1.0" encoding="utf-8" standalone="no"?>
<!DOCTYPE svg PUBLIC "-//W3C//DTD SVG 1.1//EN"
  "http://www.w3.org/Graphics/SVG/1.1/DTD/svg11.dtd">
<svg xmlns:xlink="http://www.w3.org/1999/xlink" width="1296pt" height="360pt" viewBox="0 0 1296 360" xmlns="http://www.w3.org/2000/svg" version="1.1">
 <metadata>
  <rdf:RDF xmlns:dc="http://purl.org/dc/elements/1.1/" xmlns:cc="http://creativecommons.org/ns#" xmlns:rdf="http://www.w3.org/1999/02/22-rdf-syntax-ns#">
   <cc:Work>
    <dc:type rdf:resource="http://purl.org/dc/dcmitype/StillImage"/>
    <dc:date>2025-11-17T20:37:38.738153</dc:date>
    <dc:format>image/svg+xml</dc:format>
    <dc:creator>
     <cc:Agent>
      <dc:title>Matplotlib v3.10.3, https://matplotlib.org/</dc:title>
     </cc:Agent>
    </dc:creator>
   </cc:Work>
  </rdf:RDF>
 </metadata>
 <defs>
  <style type="text/css">*{stroke-linejoin: round; stroke-linecap: butt}</style>
 </defs>
 <g id="figure_1">
  <g id="patch_1">
   <path d="M 0 360 
L 1296 360 
L 1296 0 
L 0 0 
z
" style="fill: #ffffff"/>
  </g>
  <g id="axes_1">
   <g id="patch_2">
    <path d="M 64.64 306.52 
L 429.851667 306.52 
L 429.851667 32.64 
L 64.64 32.64 
z
" style="fill: #ffffff"/>
   </g>
   <g id="matplotlib.axis_1">
    <g id="xtick_1">
     <g id="line2d_1">
      <defs>
       <path id="m2b7f016cd5" d="M 0 0 
L 0 3.5 
" style="stroke: #000000; stroke-width: 0.8"/>
      </defs>
      <g>
       <use xlink:href="#m2b7f016cd5" x="64.64" y="306.52" style="stroke: #000000; stroke-width: 0.8"/>
      </g>
     </g>
     <g id="text_1">
      <!-- 0.0 -->
      <g transform="translate(51.9175 325.6775) scale(0.16 -0.16)">
       <defs>
        <path id="DejaVuSans-30" d="M 2034 4250 
Q 1547 4250 1301 3770 
Q 1056 3291 1056 2328 
Q 1056 1369 1301 889 
Q 1547 409 2034 409 
Q 2525 409 2770 889 
Q 3016 1369 3016 2328 
Q 3016 3291 2770 3770 
Q 2525 4250 2034 4250 
z
M 2034 4750 
Q 2819 4750 3233 4129 
Q 3647 3509 3647 2328 
Q 3647 1150 3233 529 
Q 2819 -91 2034 -91 
Q 1250 -91 836 529 
Q 422 1150 422 2328 
Q 422 3509 836 4129 
Q 1250 4750 2034 4750 
z
" transform="scale(0.015625)"/>
        <path id="DejaVuSans-2e" d="M 684 794 
L 1344 794 
L 1344 0 
L 684 0 
L 684 794 
z
" transform="scale(0.015625)"/>
       </defs>
       <use xlink:href="#DejaVuSans-30"/>
       <use xlink:href="#DejaVuSans-2e" transform="translate(63.623047 0)"/>
       <use xlink:href="#DejaVuSans-30" transform="translate(95.410156 0)"/>
      </g>
     </g>
    </g>
    <g id="xtick_2">
     <g id="line2d_2">
      <g>
       <use xlink:href="#m2b7f016cd5" x="137.682333" y="306.52" style="stroke: #000000; stroke-width: 0.8"/>
      </g>
     </g>
     <g id="text_2">
      <!-- 0.2 -->
      <g transform="translate(124.959833 325.6775) scale(0.16 -0.16)">
       <defs>
        <path id="DejaVuSans-32" d="M 1228 531 
L 3431 531 
L 3431 0 
L 469 0 
L 469 531 
Q 828 903 1448 1529 
Q 2069 2156 2228 2338 
Q 2531 2678 2651 2914 
Q 2772 3150 2772 3378 
Q 2772 3750 2511 3984 
Q 2250 4219 1831 4219 
Q 1534 4219 1204 4116 
Q 875 4013 500 3803 
L 500 4441 
Q 881 4594 1212 4672 
Q 1544 4750 1819 4750 
Q 2544 4750 2975 4387 
Q 3406 4025 3406 3419 
Q 3406 3131 3298 2873 
Q 3191 2616 2906 2266 
Q 2828 2175 2409 1742 
Q 1991 1309 1228 531 
z
" transform="scale(0.015625)"/>
       </defs>
       <use xlink:href="#DejaVuSans-30"/>
       <use xlink:href="#DejaVuSans-2e" transform="translate(63.623047 0)"/>
       <use xlink:href="#DejaVuSans-32" transform="translate(95.410156 0)"/>
      </g>
     </g>
    </g>
    <g id="xtick_3">
     <g id="line2d_3">
      <g>
       <use xlink:href="#m2b7f016cd5" x="210.724667" y="306.52" style="stroke: #000000; stroke-width: 0.8"/>
      </g>
     </g>
     <g id="text_3">
      <!-- 0.4 -->
      <g transform="translate(198.002167 325.6775) scale(0.16 -0.16)">
       <defs>
        <path id="DejaVuSans-34" d="M 2419 4116 
L 825 1625 
L 2419 1625 
L 2419 4116 
z
M 2253 4666 
L 3047 4666 
L 3047 1625 
L 3713 1625 
L 3713 1100 
L 3047 1100 
L 3047 0 
L 2419 0 
L 2419 1100 
L 313 1100 
L 313 1709 
L 2253 4666 
z
" transform="scale(0.015625)"/>
       </defs>
       <use xlink:href="#DejaVuSans-30"/>
       <use xlink:href="#DejaVuSans-2e" transform="translate(63.623047 0)"/>
       <use xlink:href="#DejaVuSans-34" transform="translate(95.410156 0)"/>
      </g>
     </g>
    </g>
    <g id="xtick_4">
     <g id="line2d_4">
      <g>
       <use xlink:href="#m2b7f016cd5" x="283.767" y="306.52" style="stroke: #000000; stroke-width: 0.8"/>
      </g>
     </g>
     <g id="text_4">
      <!-- 0.6 -->
      <g transform="translate(271.0445 325.6775) scale(0.16 -0.16)">
       <defs>
        <path id="DejaVuSans-36" d="M 2113 2584 
Q 1688 2584 1439 2293 
Q 1191 2003 1191 1497 
Q 1191 994 1439 701 
Q 1688 409 2113 409 
Q 2538 409 2786 701 
Q 3034 994 3034 1497 
Q 3034 2003 2786 2293 
Q 2538 2584 2113 2584 
z
M 3366 4563 
L 3366 3988 
Q 3128 4100 2886 4159 
Q 2644 4219 2406 4219 
Q 1781 4219 1451 3797 
Q 1122 3375 1075 2522 
Q 1259 2794 1537 2939 
Q 1816 3084 2150 3084 
Q 2853 3084 3261 2657 
Q 3669 2231 3669 1497 
Q 3669 778 3244 343 
Q 2819 -91 2113 -91 
Q 1303 -91 875 529 
Q 447 1150 447 2328 
Q 447 3434 972 4092 
Q 1497 4750 2381 4750 
Q 2619 4750 2861 4703 
Q 3103 4656 3366 4563 
z
" transform="scale(0.015625)"/>
       </defs>
       <use xlink:href="#DejaVuSans-30"/>
       <use xlink:href="#DejaVuSans-2e" transform="translate(63.623047 0)"/>
       <use xlink:href="#DejaVuSans-36" transform="translate(95.410156 0)"/>
      </g>
     </g>
    </g>
    <g id="xtick_5">
     <g id="line2d_5">
      <g>
       <use xlink:href="#m2b7f016cd5" x="356.809333" y="306.52" style="stroke: #000000; stroke-width: 0.8"/>
      </g>
     </g>
     <g id="text_5">
      <!-- 0.8 -->
      <g transform="translate(344.086833 325.6775) scale(0.16 -0.16)">
       <defs>
        <path id="DejaVuSans-38" d="M 2034 2216 
Q 1584 2216 1326 1975 
Q 1069 1734 1069 1313 
Q 1069 891 1326 650 
Q 1584 409 2034 409 
Q 2484 409 2743 651 
Q 3003 894 3003 1313 
Q 3003 1734 2745 1975 
Q 2488 2216 2034 2216 
z
M 1403 2484 
Q 997 2584 770 2862 
Q 544 3141 544 3541 
Q 544 4100 942 4425 
Q 1341 4750 2034 4750 
Q 2731 4750 3128 4425 
Q 3525 4100 3525 3541 
Q 3525 3141 3298 2862 
Q 3072 2584 2669 2484 
Q 3125 2378 3379 2068 
Q 3634 1759 3634 1313 
Q 3634 634 3220 271 
Q 2806 -91 2034 -91 
Q 1263 -91 848 271 
Q 434 634 434 1313 
Q 434 1759 690 2068 
Q 947 2378 1403 2484 
z
M 1172 3481 
Q 1172 3119 1398 2916 
Q 1625 2713 2034 2713 
Q 2441 2713 2670 2916 
Q 2900 3119 2900 3481 
Q 2900 3844 2670 4047 
Q 2441 4250 2034 4250 
Q 1625 4250 1398 4047 
Q 1172 3844 1172 3481 
z
" transform="scale(0.015625)"/>
       </defs>
       <use xlink:href="#DejaVuSans-30"/>
       <use xlink:href="#DejaVuSans-2e" transform="translate(63.623047 0)"/>
       <use xlink:href="#DejaVuSans-38" transform="translate(95.410156 0)"/>
      </g>
     </g>
    </g>
    <g id="xtick_6">
     <g id="line2d_6">
      <g>
       <use xlink:href="#m2b7f016cd5" x="429.851667" y="306.52" style="stroke: #000000; stroke-width: 0.8"/>
      </g>
     </g>
     <g id="text_6">
      <!-- 1.0 -->
      <g transform="translate(417.129167 325.6775) scale(0.16 -0.16)">
       <defs>
        <path id="DejaVuSans-31" d="M 794 531 
L 1825 531 
L 1825 4091 
L 703 3866 
L 703 4441 
L 1819 4666 
L 2450 4666 
L 2450 531 
L 3481 531 
L 3481 0 
L 794 0 
L 794 531 
z
" transform="scale(0.015625)"/>
       </defs>
       <use xlink:href="#DejaVuSans-31"/>
       <use xlink:href="#DejaVuSans-2e" transform="translate(63.623047 0)"/>
       <use xlink:href="#DejaVuSans-30" transform="translate(95.410156 0)"/>
      </g>
     </g>
    </g>
    <g id="text_7">
     <!-- False Positive Rate -->
     <g transform="translate(163.606302 346.682187) scale(0.18 -0.18)">
      <defs>
       <path id="DejaVuSans-46" d="M 628 4666 
L 3309 4666 
L 3309 4134 
L 1259 4134 
L 1259 2759 
L 3109 2759 
L 3109 2228 
L 1259 2228 
L 1259 0 
L 628 0 
L 628 4666 
z
" transform="scale(0.015625)"/>
       <path id="DejaVuSans-61" d="M 2194 1759 
Q 1497 1759 1228 1600 
Q 959 1441 959 1056 
Q 959 750 1161 570 
Q 1363 391 1709 391 
Q 2188 391 2477 730 
Q 2766 1069 2766 1631 
L 2766 1759 
L 2194 1759 
z
M 3341 1997 
L 3341 0 
L 2766 0 
L 2766 531 
Q 2569 213 2275 61 
Q 1981 -91 1556 -91 
Q 1019 -91 701 211 
Q 384 513 384 1019 
Q 384 1609 779 1909 
Q 1175 2209 1959 2209 
L 2766 2209 
L 2766 2266 
Q 2766 2663 2505 2880 
Q 2244 3097 1772 3097 
Q 1472 3097 1187 3025 
Q 903 2953 641 2809 
L 641 3341 
Q 956 3463 1253 3523 
Q 1550 3584 1831 3584 
Q 2591 3584 2966 3190 
Q 3341 2797 3341 1997 
z
" transform="scale(0.015625)"/>
       <path id="DejaVuSans-6c" d="M 603 4863 
L 1178 4863 
L 1178 0 
L 603 0 
L 603 4863 
z
" transform="scale(0.015625)"/>
       <path id="DejaVuSans-73" d="M 2834 3397 
L 2834 2853 
Q 2591 2978 2328 3040 
Q 2066 3103 1784 3103 
Q 1356 3103 1142 2972 
Q 928 2841 928 2578 
Q 928 2378 1081 2264 
Q 1234 2150 1697 2047 
L 1894 2003 
Q 2506 1872 2764 1633 
Q 3022 1394 3022 966 
Q 3022 478 2636 193 
Q 2250 -91 1575 -91 
Q 1294 -91 989 -36 
Q 684 19 347 128 
L 347 722 
Q 666 556 975 473 
Q 1284 391 1588 391 
Q 1994 391 2212 530 
Q 2431 669 2431 922 
Q 2431 1156 2273 1281 
Q 2116 1406 1581 1522 
L 1381 1569 
Q 847 1681 609 1914 
Q 372 2147 372 2553 
Q 372 3047 722 3315 
Q 1072 3584 1716 3584 
Q 2034 3584 2315 3537 
Q 2597 3491 2834 3397 
z
" transform="scale(0.015625)"/>
       <path id="DejaVuSans-65" d="M 3597 1894 
L 3597 1613 
L 953 1613 
Q 991 1019 1311 708 
Q 1631 397 2203 397 
Q 2534 397 2845 478 
Q 3156 559 3463 722 
L 3463 178 
Q 3153 47 2828 -22 
Q 2503 -91 2169 -91 
Q 1331 -91 842 396 
Q 353 884 353 1716 
Q 353 2575 817 3079 
Q 1281 3584 2069 3584 
Q 2775 3584 3186 3129 
Q 3597 2675 3597 1894 
z
M 3022 2063 
Q 3016 2534 2758 2815 
Q 2500 3097 2075 3097 
Q 1594 3097 1305 2825 
Q 1016 2553 972 2059 
L 3022 2063 
z
" transform="scale(0.015625)"/>
       <path id="DejaVuSans-20" transform="scale(0.015625)"/>
       <path id="DejaVuSans-50" d="M 1259 4147 
L 1259 2394 
L 2053 2394 
Q 2494 2394 2734 2622 
Q 2975 2850 2975 3272 
Q 2975 3691 2734 3919 
Q 2494 4147 2053 4147 
L 1259 4147 
z
M 628 4666 
L 2053 4666 
Q 2838 4666 3239 4311 
Q 3641 3956 3641 3272 
Q 3641 2581 3239 2228 
Q 2838 1875 2053 1875 
L 1259 1875 
L 1259 0 
L 628 0 
L 628 4666 
z
" transform="scale(0.015625)"/>
       <path id="DejaVuSans-6f" d="M 1959 3097 
Q 1497 3097 1228 2736 
Q 959 2375 959 1747 
Q 959 1119 1226 758 
Q 1494 397 1959 397 
Q 2419 397 2687 759 
Q 2956 1122 2956 1747 
Q 2956 2369 2687 2733 
Q 2419 3097 1959 3097 
z
M 1959 3584 
Q 2709 3584 3137 3096 
Q 3566 2609 3566 1747 
Q 3566 888 3137 398 
Q 2709 -91 1959 -91 
Q 1206 -91 779 398 
Q 353 888 353 1747 
Q 353 2609 779 3096 
Q 1206 3584 1959 3584 
z
" transform="scale(0.015625)"/>
       <path id="DejaVuSans-69" d="M 603 3500 
L 1178 3500 
L 1178 0 
L 603 0 
L 603 3500 
z
M 603 4863 
L 1178 4863 
L 1178 4134 
L 603 4134 
L 603 4863 
z
" transform="scale(0.015625)"/>
       <path id="DejaVuSans-74" d="M 1172 4494 
L 1172 3500 
L 2356 3500 
L 2356 3053 
L 1172 3053 
L 1172 1153 
Q 1172 725 1289 603 
Q 1406 481 1766 481 
L 2356 481 
L 2356 0 
L 1766 0 
Q 1100 0 847 248 
Q 594 497 594 1153 
L 594 3053 
L 172 3053 
L 172 3500 
L 594 3500 
L 594 4494 
L 1172 4494 
z
" transform="scale(0.015625)"/>
       <path id="DejaVuSans-76" d="M 191 3500 
L 800 3500 
L 1894 563 
L 2988 3500 
L 3597 3500 
L 2284 0 
L 1503 0 
L 191 3500 
z
" transform="scale(0.015625)"/>
       <path id="DejaVuSans-52" d="M 2841 2188 
Q 3044 2119 3236 1894 
Q 3428 1669 3622 1275 
L 4263 0 
L 3584 0 
L 2988 1197 
Q 2756 1666 2539 1819 
Q 2322 1972 1947 1972 
L 1259 1972 
L 1259 0 
L 628 0 
L 628 4666 
L 2053 4666 
Q 2853 4666 3247 4331 
Q 3641 3997 3641 3322 
Q 3641 2881 3436 2590 
Q 3231 2300 2841 2188 
z
M 1259 4147 
L 1259 2491 
L 2053 2491 
Q 2509 2491 2742 2702 
Q 2975 2913 2975 3322 
Q 2975 3731 2742 3939 
Q 2509 4147 2053 4147 
L 1259 4147 
z
" transform="scale(0.015625)"/>
      </defs>
      <use xlink:href="#DejaVuSans-46"/>
      <use xlink:href="#DejaVuSans-61" transform="translate(48.394531 0)"/>
      <use xlink:href="#DejaVuSans-6c" transform="translate(109.673828 0)"/>
      <use xlink:href="#DejaVuSans-73" transform="translate(137.457031 0)"/>
      <use xlink:href="#DejaVuSans-65" transform="translate(189.556641 0)"/>
      <use xlink:href="#DejaVuSans-20" transform="translate(251.080078 0)"/>
      <use xlink:href="#DejaVuSans-50" transform="translate(282.867188 0)"/>
      <use xlink:href="#DejaVuSans-6f" transform="translate(339.544922 0)"/>
      <use xlink:href="#DejaVuSans-73" transform="translate(400.726562 0)"/>
      <use xlink:href="#DejaVuSans-69" transform="translate(452.826172 0)"/>
      <use xlink:href="#DejaVuSans-74" transform="translate(480.609375 0)"/>
      <use xlink:href="#DejaVuSans-69" transform="translate(519.818359 0)"/>
      <use xlink:href="#DejaVuSans-76" transform="translate(547.601562 0)"/>
      <use xlink:href="#DejaVuSans-65" transform="translate(606.78125 0)"/>
      <use xlink:href="#DejaVuSans-20" transform="translate(668.304688 0)"/>
      <use xlink:href="#DejaVuSans-52" transform="translate(700.091797 0)"/>
      <use xlink:href="#DejaVuSans-61" transform="translate(767.324219 0)"/>
      <use xlink:href="#DejaVuSans-74" transform="translate(828.603516 0)"/>
      <use xlink:href="#DejaVuSans-65" transform="translate(867.8125 0)"/>
     </g>
    </g>
   </g>
   <g id="matplotlib.axis_2">
    <g id="ytick_1">
     <g id="line2d_7">
      <defs>
       <path id="m7ceb61fd49" d="M 0 0 
L -3.5 0 
" style="stroke: #000000; stroke-width: 0.8"/>
      </defs>
      <g>
       <use xlink:href="#m7ceb61fd49" x="64.64" y="306.52" style="stroke: #000000; stroke-width: 0.8"/>
      </g>
     </g>
     <g id="text_8">
      <!-- 0.0 -->
      <g transform="translate(32.195 312.59875) scale(0.16 -0.16)">
       <use xlink:href="#DejaVuSans-30"/>
       <use xlink:href="#DejaVuSans-2e" transform="translate(63.623047 0)"/>
       <use xlink:href="#DejaVuSans-30" transform="translate(95.410156 0)"/>
      </g>
     </g>
    </g>
    <g id="ytick_2">
     <g id="line2d_8">
      <g>
       <use xlink:href="#m7ceb61fd49" x="64.64" y="254.352381" style="stroke: #000000; stroke-width: 0.8"/>
      </g>
     </g>
     <g id="text_9">
      <!-- 0.2 -->
      <g transform="translate(32.195 260.431131) scale(0.16 -0.16)">
       <use xlink:href="#DejaVuSans-30"/>
       <use xlink:href="#DejaVuSans-2e" transform="translate(63.623047 0)"/>
       <use xlink:href="#DejaVuSans-32" transform="translate(95.410156 0)"/>
      </g>
     </g>
    </g>
    <g id="ytick_3">
     <g id="line2d_9">
      <g>
       <use xlink:href="#m7ceb61fd49" x="64.64" y="202.184762" style="stroke: #000000; stroke-width: 0.8"/>
      </g>
     </g>
     <g id="text_10">
      <!-- 0.4 -->
      <g transform="translate(32.195 208.263512) scale(0.16 -0.16)">
       <use xlink:href="#DejaVuSans-30"/>
       <use xlink:href="#DejaVuSans-2e" transform="translate(63.623047 0)"/>
       <use xlink:href="#DejaVuSans-34" transform="translate(95.410156 0)"/>
      </g>
     </g>
    </g>
    <g id="ytick_4">
     <g id="line2d_10">
      <g>
       <use xlink:href="#m7ceb61fd49" x="64.64" y="150.017143" style="stroke: #000000; stroke-width: 0.8"/>
      </g>
     </g>
     <g id="text_11">
      <!-- 0.6 -->
      <g transform="translate(32.195 156.095893) scale(0.16 -0.16)">
       <use xlink:href="#DejaVuSans-30"/>
       <use xlink:href="#DejaVuSans-2e" transform="translate(63.623047 0)"/>
       <use xlink:href="#DejaVuSans-36" transform="translate(95.410156 0)"/>
      </g>
     </g>
    </g>
    <g id="ytick_5">
     <g id="line2d_11">
      <g>
       <use xlink:href="#m7ceb61fd49" x="64.64" y="97.849524" style="stroke: #000000; stroke-width: 0.8"/>
      </g>
     </g>
     <g id="text_12">
      <!-- 0.8 -->
      <g transform="translate(32.195 103.928274) scale(0.16 -0.16)">
       <use xlink:href="#DejaVuSans-30"/>
       <use xlink:href="#DejaVuSans-2e" transform="translate(63.623047 0)"/>
       <use xlink:href="#DejaVuSans-38" transform="translate(95.410156 0)"/>
      </g>
     </g>
    </g>
    <g id="ytick_6">
     <g id="line2d_12">
      <g>
       <use xlink:href="#m7ceb61fd49" x="64.64" y="45.681905" style="stroke: #000000; stroke-width: 0.8"/>
      </g>
     </g>
     <g id="text_13">
      <!-- 1.0 -->
      <g transform="translate(32.195 51.760655) scale(0.16 -0.16)">
       <use xlink:href="#DejaVuSans-31"/>
       <use xlink:href="#DejaVuSans-2e" transform="translate(63.623047 0)"/>
       <use xlink:href="#DejaVuSans-30" transform="translate(95.410156 0)"/>
      </g>
     </g>
    </g>
    <g id="text_14">
     <!-- True Positive Rate -->
     <g transform="translate(24.451562 249.733438) rotate(-90) scale(0.18 -0.18)">
      <defs>
       <path id="DejaVuSans-54" d="M -19 4666 
L 3928 4666 
L 3928 4134 
L 2272 4134 
L 2272 0 
L 1638 0 
L 1638 4134 
L -19 4134 
L -19 4666 
z
" transform="scale(0.015625)"/>
       <path id="DejaVuSans-72" d="M 2631 2963 
Q 2534 3019 2420 3045 
Q 2306 3072 2169 3072 
Q 1681 3072 1420 2755 
Q 1159 2438 1159 1844 
L 1159 0 
L 581 0 
L 581 3500 
L 1159 3500 
L 1159 2956 
Q 1341 3275 1631 3429 
Q 1922 3584 2338 3584 
Q 2397 3584 2469 3576 
Q 2541 3569 2628 3553 
L 2631 2963 
z
" transform="scale(0.015625)"/>
       <path id="DejaVuSans-75" d="M 544 1381 
L 544 3500 
L 1119 3500 
L 1119 1403 
Q 1119 906 1312 657 
Q 1506 409 1894 409 
Q 2359 409 2629 706 
Q 2900 1003 2900 1516 
L 2900 3500 
L 3475 3500 
L 3475 0 
L 2900 0 
L 2900 538 
Q 2691 219 2414 64 
Q 2138 -91 1772 -91 
Q 1169 -91 856 284 
Q 544 659 544 1381 
z
M 1991 3584 
L 1991 3584 
z
" transform="scale(0.015625)"/>
      </defs>
      <use xlink:href="#DejaVuSans-54"/>
      <use xlink:href="#DejaVuSans-72" transform="translate(46.333984 0)"/>
      <use xlink:href="#DejaVuSans-75" transform="translate(87.447266 0)"/>
      <use xlink:href="#DejaVuSans-65" transform="translate(150.826172 0)"/>
      <use xlink:href="#DejaVuSans-20" transform="translate(212.349609 0)"/>
      <use xlink:href="#DejaVuSans-50" transform="translate(244.136719 0)"/>
      <use xlink:href="#DejaVuSans-6f" transform="translate(300.814453 0)"/>
      <use xlink:href="#DejaVuSans-73" transform="translate(361.996094 0)"/>
      <use xlink:href="#DejaVuSans-69" transform="translate(414.095703 0)"/>
      <use xlink:href="#DejaVuSans-74" transform="translate(441.878906 0)"/>
      <use xlink:href="#DejaVuSans-69" transform="translate(481.087891 0)"/>
      <use xlink:href="#DejaVuSans-76" transform="translate(508.871094 0)"/>
      <use xlink:href="#DejaVuSans-65" transform="translate(568.050781 0)"/>
      <use xlink:href="#DejaVuSans-20" transform="translate(629.574219 0)"/>
      <use xlink:href="#DejaVuSans-52" transform="translate(661.361328 0)"/>
      <use xlink:href="#DejaVuSans-61" transform="translate(728.59375 0)"/>
      <use xlink:href="#DejaVuSans-74" transform="translate(789.873047 0)"/>
      <use xlink:href="#DejaVuSans-65" transform="translate(829.082031 0)"/>
     </g>
    </g>
   </g>
   <g id="line2d_13">
    <path d="M 64.64 306.52 
L 64.64 273.687233 
L 65.865543 273.687233 
L 65.865543 257.270849 
L 67.091085 257.270849 
L 67.091085 237.20638 
L 69.54217 237.20638 
L 69.54217 222.614039 
L 71.993255 222.614039 
L 71.993255 208.021698 
L 73.218798 208.021698 
L 73.218798 206.197656 
L 74.44434 206.197656 
L 74.44434 204.373613 
L 75.669883 204.373613 
L 75.669883 202.54957 
L 76.895425 202.54957 
L 76.895425 189.781272 
L 79.34651 189.781272 
L 79.34651 184.309144 
L 84.24868 184.309144 
L 84.24868 177.012974 
L 86.699765 177.012974 
L 86.699765 173.364888 
L 87.925308 173.364888 
L 87.925308 171.540846 
L 89.15085 171.540846 
L 89.15085 169.716803 
L 91.601935 169.716803 
L 91.601935 167.892761 
L 94.05302 167.892761 
L 94.05302 166.068718 
L 95.278563 166.068718 
L 95.278563 164.244675 
L 96.504105 164.244675 
L 96.504105 158.772547 
L 101.406275 158.772547 
L 101.406275 153.30042 
L 102.631818 153.30042 
L 102.631818 151.476377 
L 108.75953 151.476377 
L 108.75953 149.652334 
L 109.985073 149.652334 
L 109.985073 146.004249 
L 113.6617 146.004249 
L 113.6617 142.356164 
L 114.887243 142.356164 
L 114.887243 140.532121 
L 116.112785 140.532121 
L 116.112785 138.708079 
L 118.56387 138.708079 
L 118.56387 135.059993 
L 124.691583 135.059993 
L 124.691583 133.235951 
L 127.142668 133.235951 
L 127.142668 131.411908 
L 141.849178 131.411908 
L 141.849178 129.587865 
L 143.07472 129.587865 
L 143.07472 127.763823 
L 150.427975 127.763823 
L 150.427975 125.93978 
L 151.653518 125.93978 
L 151.653518 124.115738 
L 152.87906 124.115738 
L 152.87906 122.291695 
L 154.104603 122.291695 
L 154.104603 120.467652 
L 159.006773 120.467652 
L 159.006773 118.64361 
L 163.908943 118.64361 
L 163.908943 116.819567 
L 171.262198 116.819567 
L 171.262198 114.995524 
L 178.615453 114.995524 
L 178.615453 113.171482 
L 185.968708 113.171482 
L 185.968708 111.347439 
L 189.645336 111.347439 
L 189.645336 107.699354 
L 192.096421 107.699354 
L 192.096421 102.227226 
L 200.675218 102.227226 
L 200.675218 98.579141 
L 204.351846 98.579141 
L 204.351846 96.755098 
L 210.479558 96.755098 
L 210.479558 94.931056 
L 212.930643 94.931056 
L 212.930643 93.107013 
L 217.832813 93.107013 
L 217.832813 91.28297 
L 220.283898 91.28297 
L 220.283898 89.458928 
L 221.509441 89.458928 
L 221.509441 87.634885 
L 222.734983 87.634885 
L 222.734983 85.810842 
L 236.215951 85.810842 
L 236.215951 82.162757 
L 237.441493 82.162757 
L 237.441493 80.338715 
L 238.667036 80.338715 
L 238.667036 78.514672 
L 239.892578 78.514672 
L 239.892578 76.690629 
L 249.696918 76.690629 
L 249.696918 74.866587 
L 252.148003 74.866587 
L 252.148003 73.042544 
L 257.050173 73.042544 
L 257.050173 71.218501 
L 259.501258 71.218501 
L 259.501258 69.394459 
L 269.305598 69.394459 
L 269.305598 67.570416 
L 282.786566 67.570416 
L 282.786566 65.746374 
L 284.012109 65.746374 
L 284.012109 63.922331 
L 288.914279 63.922331 
L 288.914279 62.098288 
L 292.590906 62.098288 
L 292.590906 60.274246 
L 297.493076 60.274246 
L 297.493076 58.450203 
L 324.455011 58.450203 
L 324.455011 56.626161 
L 326.906096 56.626161 
L 326.906096 54.802118 
L 331.808266 54.802118 
L 331.808266 52.978075 
L 363.672371 52.978075 
L 363.672371 51.154033 
L 380.829966 51.154033 
L 380.829966 49.32999 
L 383.281051 49.32999 
L 383.281051 47.505947 
L 390.634306 47.505947 
L 390.634306 45.681905 
L 429.851667 45.681905 
L 429.851667 45.681905 
" clip-path="url(#p45c1c17a8f)" style="fill: none; stroke: #3171ad; stroke-width: 3; stroke-linecap: square"/>
   </g>
   <g id="line2d_14">
    <path d="M 64.64 306.52 
L 64.64 302.022791 
L 64.64 288.531166 
L 65.593555 288.531166 
L 65.593555 252.553498 
L 69.407776 252.553498 
L 69.407776 225.570246 
L 70.361332 225.570246 
L 70.361332 221.073038 
L 72.268442 221.073038 
L 72.268442 212.078621 
L 74.175553 212.078621 
L 74.175553 207.581412 
L 75.129108 207.581412 
L 75.129108 194.089787 
L 83.711105 194.089787 
L 83.711105 189.592578 
L 85.618216 189.592578 
L 85.618216 180.598161 
L 88.478882 180.598161 
L 88.478882 176.100952 
L 97.060879 176.100952 
L 97.060879 167.106535 
L 99.921545 167.106535 
L 99.921545 158.112118 
L 107.549987 158.112118 
L 107.549987 153.61491 
L 123.760426 153.61491 
L 123.760426 144.620493 
L 133.295979 144.620493 
L 133.295979 140.123284 
L 142.831532 140.123284 
L 142.831532 135.626076 
L 151.413529 135.626076 
L 151.413529 131.128867 
L 154.274195 131.128867 
L 154.274195 126.631658 
L 159.041971 126.631658 
L 159.041971 122.13445 
L 163.809748 122.13445 
L 163.809748 117.637241 
L 165.716858 117.637241 
L 165.716858 108.642824 
L 174.298856 108.642824 
L 174.298856 104.145616 
L 177.159521 104.145616 
L 177.159521 99.648407 
L 184.787963 99.648407 
L 184.787963 95.151199 
L 186.695074 95.151199 
L 186.695074 90.65399 
L 187.648629 90.65399 
L 187.648629 86.156782 
L 205.766179 86.156782 
L 205.766179 81.659573 
L 210.533956 81.659573 
L 210.533956 77.162365 
L 215.301732 77.162365 
L 215.301732 72.665156 
L 218.162398 72.665156 
L 218.162398 68.167947 
L 227.69795 68.167947 
L 227.69795 63.670739 
L 234.372837 63.670739 
L 234.372837 59.17353 
L 254.397498 59.17353 
L 254.397498 54.676322 
L 278.236379 54.676322 
L 278.236379 50.179113 
L 337.356806 50.179113 
L 337.356806 45.681905 
L 429.851667 45.681905 
" clip-path="url(#p45c1c17a8f)" style="fill: none; stroke: #d39233; stroke-width: 3; stroke-linecap: square"/>
   </g>
   <g id="line2d_15">
    <path d="M 64.64 306.52 
L 64.64 295.179213 
L 64.64 238.47528 
L 66.387424 238.47528 
L 66.387424 193.112133 
L 68.134848 193.112133 
L 68.134848 170.430559 
L 75.998258 170.430559 
L 75.998258 159.089772 
L 82.987955 159.089772 
L 82.987955 147.748986 
L 91.725076 147.748986 
L 91.725076 136.408199 
L 99.588485 136.408199 
L 99.588485 125.067412 
L 105.70447 125.067412 
L 105.70447 113.726625 
L 106.578182 113.726625 
L 106.578182 102.385839 
L 107.451894 102.385839 
L 107.451894 91.045052 
L 137.158106 91.045052 
L 137.158106 79.704265 
L 148.516364 79.704265 
L 148.516364 68.363478 
L 200.939091 68.363478 
L 200.939091 57.022692 
L 252.488106 57.022692 
L 252.488106 45.681905 
L 429.851667 45.681905 
" clip-path="url(#p45c1c17a8f)" style="fill: none; stroke: #469c76; stroke-width: 3; stroke-linecap: square"/>
   </g>
   <g id="line2d_16">
    <path d="M 64.64 306.52 
L 64.64 281.277604 
L 66.270409 281.277604 
L 66.270409 269.257415 
L 67.900818 269.257415 
L 67.900818 258.439245 
L 69.531228 258.439245 
L 69.531228 257.237226 
L 71.161637 257.237226 
L 71.161637 248.823094 
L 72.792046 248.823094 
L 72.792046 244.015019 
L 77.683274 244.015019 
L 77.683274 240.408962 
L 79.313683 240.408962 
L 79.313683 239.206943 
L 82.574501 239.206943 
L 82.574501 236.802905 
L 85.83532 236.802905 
L 85.83532 234.398868 
L 87.465729 234.398868 
L 87.465729 231.99483 
L 89.096138 231.99483 
L 89.096138 230.792811 
L 90.726548 230.792811 
L 90.726548 228.388773 
L 92.356957 228.388773 
L 92.356957 218.772622 
L 95.617775 218.772622 
L 95.617775 217.570603 
L 97.248185 217.570603 
L 97.248185 216.368585 
L 100.509003 216.368585 
L 100.509003 204.348396 
L 103.769821 204.348396 
L 103.769821 200.742339 
L 111.921868 200.742339 
L 111.921868 193.530226 
L 115.182686 193.530226 
L 115.182686 192.328207 
L 116.813095 192.328207 
L 116.813095 181.510037 
L 118.443504 181.510037 
L 118.443504 177.903981 
L 121.704323 177.903981 
L 121.704323 170.691867 
L 126.595551 170.691867 
L 126.595551 169.489849 
L 128.22596 169.489849 
L 128.22596 168.28783 
L 134.747597 168.28783 
L 134.747597 162.277735 
L 136.378006 162.277735 
L 136.378006 156.267641 
L 141.269234 156.267641 
L 141.269234 155.065622 
L 142.899643 155.065622 
L 142.899643 150.257547 
L 144.530052 150.257547 
L 144.530052 144.247452 
L 146.160461 144.247452 
L 146.160461 143.045433 
L 149.42128 143.045433 
L 149.42128 141.843415 
L 151.051689 141.843415 
L 151.051689 140.641396 
L 152.682098 140.641396 
L 152.682098 139.439377 
L 154.312507 139.439377 
L 154.312507 133.429282 
L 155.942917 133.429282 
L 155.942917 132.227264 
L 157.573326 132.227264 
L 157.573326 131.025245 
L 160.834144 131.025245 
L 160.834144 128.621207 
L 162.464554 128.621207 
L 162.464554 122.611113 
L 168.98619 122.611113 
L 168.98619 120.207075 
L 172.247009 120.207075 
L 172.247009 117.803037 
L 175.507827 117.803037 
L 175.507827 115.398999 
L 177.138237 115.398999 
L 177.138237 108.186886 
L 178.768646 108.186886 
L 178.768646 105.782848 
L 180.399055 105.782848 
L 180.399055 104.580829 
L 182.029464 104.580829 
L 182.029464 100.974773 
L 193.442329 100.974773 
L 193.442329 97.368716 
L 195.072738 97.368716 
L 195.072738 93.76266 
L 196.703147 93.76266 
L 196.703147 92.560641 
L 201.594375 92.560641 
L 201.594375 88.954584 
L 203.224784 88.954584 
L 203.224784 87.752565 
L 206.485603 87.752565 
L 206.485603 84.146509 
L 209.746421 84.146509 
L 209.746421 81.742471 
L 214.637649 81.742471 
L 214.637649 80.540452 
L 216.268058 80.540452 
L 216.268058 78.136414 
L 222.789695 78.136414 
L 222.789695 76.934395 
L 224.420104 76.934395 
L 224.420104 74.530358 
L 234.20256 74.530358 
L 234.20256 73.328339 
L 235.832969 73.328339 
L 235.832969 72.12632 
L 239.093787 72.12632 
L 239.093787 70.924301 
L 240.724196 70.924301 
L 240.724196 69.722282 
L 243.985015 69.722282 
L 243.985015 66.116226 
L 247.245833 66.116226 
L 247.245833 63.712188 
L 258.658698 63.712188 
L 258.658698 61.30815 
L 271.701972 61.30815 
L 271.701972 60.106131 
L 273.332381 60.106131 
L 273.332381 58.904112 
L 274.96279 58.904112 
L 274.96279 57.702093 
L 276.593199 57.702093 
L 276.593199 55.298056 
L 297.788519 55.298056 
L 297.788519 54.096037 
L 310.831793 54.096037 
L 310.831793 52.894018 
L 325.505476 52.894018 
L 325.505476 50.48998 
L 328.766295 50.48998 
L 328.766295 49.287961 
L 346.700796 49.287961 
L 346.700796 48.085943 
L 348.331205 48.085943 
L 348.331205 46.883924 
L 372.787344 46.883924 
L 372.787344 45.681905 
L 429.851667 45.681905 
L 429.851667 45.681905 
" clip-path="url(#p45c1c17a8f)" style="fill: none; stroke: #c66526; stroke-width: 3; stroke-linecap: square"/>
   </g>
   <g id="line2d_17">
    <path d="M 64.64 306.52 
L 429.851667 45.681905 
" clip-path="url(#p45c1c17a8f)" style="fill: none; stroke-dasharray: 7.4,3.2; stroke-dashoffset: 0; stroke: #000000; stroke-width: 2"/>
   </g>
   <g id="patch_3">
    <path d="M 64.64 306.52 
L 64.64 32.64 
" style="fill: none; stroke: #000000; stroke-width: 0.8; stroke-linejoin: miter; stroke-linecap: square"/>
   </g>
   <g id="patch_4">
    <path d="M 429.851667 306.52 
L 429.851667 32.64 
" style="fill: none; stroke: #000000; stroke-width: 0.8; stroke-linejoin: miter; stroke-linecap: square"/>
   </g>
   <g id="patch_5">
    <path d="M 64.64 306.52 
L 429.851667 306.52 
" style="fill: none; stroke: #000000; stroke-width: 0.8; stroke-linejoin: miter; stroke-linecap: square"/>
   </g>
   <g id="patch_6">
    <path d="M 64.64 32.64 
L 429.851667 32.64 
" style="fill: none; stroke: #000000; stroke-width: 0.8; stroke-linejoin: miter; stroke-linecap: square"/>
   </g>
   <g id="text_15">
    <!-- Train ROC Curve -->
    <g transform="translate(165.595833 26.64) scale(0.2 -0.2)">
     <defs>
      <path id="DejaVuSans-6e" d="M 3513 2113 
L 3513 0 
L 2938 0 
L 2938 2094 
Q 2938 2591 2744 2837 
Q 2550 3084 2163 3084 
Q 1697 3084 1428 2787 
Q 1159 2491 1159 1978 
L 1159 0 
L 581 0 
L 581 3500 
L 1159 3500 
L 1159 2956 
Q 1366 3272 1645 3428 
Q 1925 3584 2291 3584 
Q 2894 3584 3203 3211 
Q 3513 2838 3513 2113 
z
" transform="scale(0.015625)"/>
      <path id="DejaVuSans-4f" d="M 2522 4238 
Q 1834 4238 1429 3725 
Q 1025 3213 1025 2328 
Q 1025 1447 1429 934 
Q 1834 422 2522 422 
Q 3209 422 3611 934 
Q 4013 1447 4013 2328 
Q 4013 3213 3611 3725 
Q 3209 4238 2522 4238 
z
M 2522 4750 
Q 3503 4750 4090 4092 
Q 4678 3434 4678 2328 
Q 4678 1225 4090 567 
Q 3503 -91 2522 -91 
Q 1538 -91 948 565 
Q 359 1222 359 2328 
Q 359 3434 948 4092 
Q 1538 4750 2522 4750 
z
" transform="scale(0.015625)"/>
      <path id="DejaVuSans-43" d="M 4122 4306 
L 4122 3641 
Q 3803 3938 3442 4084 
Q 3081 4231 2675 4231 
Q 1875 4231 1450 3742 
Q 1025 3253 1025 2328 
Q 1025 1406 1450 917 
Q 1875 428 2675 428 
Q 3081 428 3442 575 
Q 3803 722 4122 1019 
L 4122 359 
Q 3791 134 3420 21 
Q 3050 -91 2638 -91 
Q 1578 -91 968 557 
Q 359 1206 359 2328 
Q 359 3453 968 4101 
Q 1578 4750 2638 4750 
Q 3056 4750 3426 4639 
Q 3797 4528 4122 4306 
z
" transform="scale(0.015625)"/>
     </defs>
     <use xlink:href="#DejaVuSans-54"/>
     <use xlink:href="#DejaVuSans-72" transform="translate(46.333984 0)"/>
     <use xlink:href="#DejaVuSans-61" transform="translate(87.447266 0)"/>
     <use xlink:href="#DejaVuSans-69" transform="translate(148.726562 0)"/>
     <use xlink:href="#DejaVuSans-6e" transform="translate(176.509766 0)"/>
     <use xlink:href="#DejaVuSans-20" transform="translate(239.888672 0)"/>
     <use xlink:href="#DejaVuSans-52" transform="translate(271.675781 0)"/>
     <use xlink:href="#DejaVuSans-4f" transform="translate(341.158203 0)"/>
     <use xlink:href="#DejaVuSans-43" transform="translate(419.869141 0)"/>
     <use xlink:href="#DejaVuSans-20" transform="translate(489.693359 0)"/>
     <use xlink:href="#DejaVuSans-43" transform="translate(521.480469 0)"/>
     <use xlink:href="#DejaVuSans-75" transform="translate(591.304688 0)"/>
     <use xlink:href="#DejaVuSans-72" transform="translate(654.683594 0)"/>
     <use xlink:href="#DejaVuSans-76" transform="translate(695.796875 0)"/>
     <use xlink:href="#DejaVuSans-65" transform="translate(754.976562 0)"/>
    </g>
   </g>
   <g id="legend_1">
    <g id="patch_7">
     <path d="M 195.835104 299.52 
L 420.051667 299.52 
Q 422.851667 299.52 422.851667 296.72 
L 422.851667 215.9225 
Q 422.851667 213.1225 420.051667 213.1225 
L 195.835104 213.1225 
Q 193.035104 213.1225 193.035104 215.9225 
L 193.035104 296.72 
Q 193.035104 299.52 195.835104 299.52 
z
" style="fill: #ffffff; opacity: 0.8; stroke: #cccccc; stroke-linejoin: miter"/>
    </g>
    <g id="line2d_18">
     <path d="M 198.635104 224.460312 
L 212.635104 224.460312 
L 226.635104 224.460312 
" style="fill: none; stroke: #3171ad; stroke-width: 3; stroke-linecap: square"/>
    </g>
    <g id="text_16">
     <!-- ADHD (AUC = 0.82) -->
     <g transform="translate(237.835104 229.360312) scale(0.14 -0.14)">
      <defs>
       <path id="DejaVuSans-41" d="M 2188 4044 
L 1331 1722 
L 3047 1722 
L 2188 4044 
z
M 1831 4666 
L 2547 4666 
L 4325 0 
L 3669 0 
L 3244 1197 
L 1141 1197 
L 716 0 
L 50 0 
L 1831 4666 
z
" transform="scale(0.015625)"/>
       <path id="DejaVuSans-44" d="M 1259 4147 
L 1259 519 
L 2022 519 
Q 2988 519 3436 956 
Q 3884 1394 3884 2338 
Q 3884 3275 3436 3711 
Q 2988 4147 2022 4147 
L 1259 4147 
z
M 628 4666 
L 1925 4666 
Q 3281 4666 3915 4102 
Q 4550 3538 4550 2338 
Q 4550 1131 3912 565 
Q 3275 0 1925 0 
L 628 0 
L 628 4666 
z
" transform="scale(0.015625)"/>
       <path id="DejaVuSans-48" d="M 628 4666 
L 1259 4666 
L 1259 2753 
L 3553 2753 
L 3553 4666 
L 4184 4666 
L 4184 0 
L 3553 0 
L 3553 2222 
L 1259 2222 
L 1259 0 
L 628 0 
L 628 4666 
z
" transform="scale(0.015625)"/>
       <path id="DejaVuSans-28" d="M 1984 4856 
Q 1566 4138 1362 3434 
Q 1159 2731 1159 2009 
Q 1159 1288 1364 580 
Q 1569 -128 1984 -844 
L 1484 -844 
Q 1016 -109 783 600 
Q 550 1309 550 2009 
Q 550 2706 781 3412 
Q 1013 4119 1484 4856 
L 1984 4856 
z
" transform="scale(0.015625)"/>
       <path id="DejaVuSans-55" d="M 556 4666 
L 1191 4666 
L 1191 1831 
Q 1191 1081 1462 751 
Q 1734 422 2344 422 
Q 2950 422 3222 751 
Q 3494 1081 3494 1831 
L 3494 4666 
L 4128 4666 
L 4128 1753 
Q 4128 841 3676 375 
Q 3225 -91 2344 -91 
Q 1459 -91 1007 375 
Q 556 841 556 1753 
L 556 4666 
z
" transform="scale(0.015625)"/>
       <path id="DejaVuSans-3d" d="M 678 2906 
L 4684 2906 
L 4684 2381 
L 678 2381 
L 678 2906 
z
M 678 1631 
L 4684 1631 
L 4684 1100 
L 678 1100 
L 678 1631 
z
" transform="scale(0.015625)"/>
       <path id="DejaVuSans-29" d="M 513 4856 
L 1013 4856 
Q 1481 4119 1714 3412 
Q 1947 2706 1947 2009 
Q 1947 1309 1714 600 
Q 1481 -109 1013 -844 
L 513 -844 
Q 928 -128 1133 580 
Q 1338 1288 1338 2009 
Q 1338 2731 1133 3434 
Q 928 4138 513 4856 
z
" transform="scale(0.015625)"/>
      </defs>
      <use xlink:href="#DejaVuSans-41"/>
      <use xlink:href="#DejaVuSans-44" transform="translate(68.408203 0)"/>
      <use xlink:href="#DejaVuSans-48" transform="translate(145.410156 0)"/>
      <use xlink:href="#DejaVuSans-44" transform="translate(220.605469 0)"/>
      <use xlink:href="#DejaVuSans-20" transform="translate(297.607422 0)"/>
      <use xlink:href="#DejaVuSans-28" transform="translate(329.394531 0)"/>
      <use xlink:href="#DejaVuSans-41" transform="translate(368.408203 0)"/>
      <use xlink:href="#DejaVuSans-55" transform="translate(436.816406 0)"/>
      <use xlink:href="#DejaVuSans-43" transform="translate(510.009766 0)"/>
      <use xlink:href="#DejaVuSans-20" transform="translate(579.833984 0)"/>
      <use xlink:href="#DejaVuSans-3d" transform="translate(611.621094 0)"/>
      <use xlink:href="#DejaVuSans-20" transform="translate(695.410156 0)"/>
      <use xlink:href="#DejaVuSans-30" transform="translate(727.197266 0)"/>
      <use xlink:href="#DejaVuSans-2e" transform="translate(790.820312 0)"/>
      <use xlink:href="#DejaVuSans-38" transform="translate(822.607422 0)"/>
      <use xlink:href="#DejaVuSans-32" transform="translate(886.230469 0)"/>
      <use xlink:href="#DejaVuSans-29" transform="translate(949.853516 0)"/>
     </g>
    </g>
    <g id="line2d_19">
     <path d="M 198.635104 245.009687 
L 212.635104 245.009687 
L 226.635104 245.009687 
" style="fill: none; stroke: #d39233; stroke-width: 3; stroke-linecap: square"/>
    </g>
    <g id="text_17">
     <!-- ASD (AUC = 0.84) -->
     <g transform="translate(237.835104 249.909687) scale(0.14 -0.14)">
      <defs>
       <path id="DejaVuSans-53" d="M 3425 4513 
L 3425 3897 
Q 3066 4069 2747 4153 
Q 2428 4238 2131 4238 
Q 1616 4238 1336 4038 
Q 1056 3838 1056 3469 
Q 1056 3159 1242 3001 
Q 1428 2844 1947 2747 
L 2328 2669 
Q 3034 2534 3370 2195 
Q 3706 1856 3706 1288 
Q 3706 609 3251 259 
Q 2797 -91 1919 -91 
Q 1588 -91 1214 -16 
Q 841 59 441 206 
L 441 856 
Q 825 641 1194 531 
Q 1563 422 1919 422 
Q 2459 422 2753 634 
Q 3047 847 3047 1241 
Q 3047 1584 2836 1778 
Q 2625 1972 2144 2069 
L 1759 2144 
Q 1053 2284 737 2584 
Q 422 2884 422 3419 
Q 422 4038 858 4394 
Q 1294 4750 2059 4750 
Q 2388 4750 2728 4690 
Q 3069 4631 3425 4513 
z
" transform="scale(0.015625)"/>
      </defs>
      <use xlink:href="#DejaVuSans-41"/>
      <use xlink:href="#DejaVuSans-53" transform="translate(68.408203 0)"/>
      <use xlink:href="#DejaVuSans-44" transform="translate(131.884766 0)"/>
      <use xlink:href="#DejaVuSans-20" transform="translate(208.886719 0)"/>
      <use xlink:href="#DejaVuSans-28" transform="translate(240.673828 0)"/>
      <use xlink:href="#DejaVuSans-41" transform="translate(279.6875 0)"/>
      <use xlink:href="#DejaVuSans-55" transform="translate(348.095703 0)"/>
      <use xlink:href="#DejaVuSans-43" transform="translate(421.289062 0)"/>
      <use xlink:href="#DejaVuSans-20" transform="translate(491.113281 0)"/>
      <use xlink:href="#DejaVuSans-3d" transform="translate(522.900391 0)"/>
      <use xlink:href="#DejaVuSans-20" transform="translate(606.689453 0)"/>
      <use xlink:href="#DejaVuSans-30" transform="translate(638.476562 0)"/>
      <use xlink:href="#DejaVuSans-2e" transform="translate(702.099609 0)"/>
      <use xlink:href="#DejaVuSans-38" transform="translate(733.886719 0)"/>
      <use xlink:href="#DejaVuSans-34" transform="translate(797.509766 0)"/>
      <use xlink:href="#DejaVuSans-29" transform="translate(861.132812 0)"/>
     </g>
    </g>
    <g id="line2d_20">
     <path d="M 198.635104 265.559063 
L 212.635104 265.559063 
L 226.635104 265.559063 
" style="fill: none; stroke: #469c76; stroke-width: 3; stroke-linecap: square"/>
    </g>
    <g id="text_18">
     <!-- ASD+ADHD (AUC = 0.92) -->
     <g transform="translate(237.835104 270.459063) scale(0.14 -0.14)">
      <defs>
       <path id="DejaVuSans-2b" d="M 2944 4013 
L 2944 2272 
L 4684 2272 
L 4684 1741 
L 2944 1741 
L 2944 0 
L 2419 0 
L 2419 1741 
L 678 1741 
L 678 2272 
L 2419 2272 
L 2419 4013 
L 2944 4013 
z
" transform="scale(0.015625)"/>
       <path id="DejaVuSans-39" d="M 703 97 
L 703 672 
Q 941 559 1184 500 
Q 1428 441 1663 441 
Q 2288 441 2617 861 
Q 2947 1281 2994 2138 
Q 2813 1869 2534 1725 
Q 2256 1581 1919 1581 
Q 1219 1581 811 2004 
Q 403 2428 403 3163 
Q 403 3881 828 4315 
Q 1253 4750 1959 4750 
Q 2769 4750 3195 4129 
Q 3622 3509 3622 2328 
Q 3622 1225 3098 567 
Q 2575 -91 1691 -91 
Q 1453 -91 1209 -44 
Q 966 3 703 97 
z
M 1959 2075 
Q 2384 2075 2632 2365 
Q 2881 2656 2881 3163 
Q 2881 3666 2632 3958 
Q 2384 4250 1959 4250 
Q 1534 4250 1286 3958 
Q 1038 3666 1038 3163 
Q 1038 2656 1286 2365 
Q 1534 2075 1959 2075 
z
" transform="scale(0.015625)"/>
      </defs>
      <use xlink:href="#DejaVuSans-41"/>
      <use xlink:href="#DejaVuSans-53" transform="translate(68.408203 0)"/>
      <use xlink:href="#DejaVuSans-44" transform="translate(131.884766 0)"/>
      <use xlink:href="#DejaVuSans-2b" transform="translate(208.886719 0)"/>
      <use xlink:href="#DejaVuSans-41" transform="translate(292.675781 0)"/>
      <use xlink:href="#DejaVuSans-44" transform="translate(361.083984 0)"/>
      <use xlink:href="#DejaVuSans-48" transform="translate(438.085938 0)"/>
      <use xlink:href="#DejaVuSans-44" transform="translate(513.28125 0)"/>
      <use xlink:href="#DejaVuSans-20" transform="translate(590.283203 0)"/>
      <use xlink:href="#DejaVuSans-28" transform="translate(622.070312 0)"/>
      <use xlink:href="#DejaVuSans-41" transform="translate(661.083984 0)"/>
      <use xlink:href="#DejaVuSans-55" transform="translate(729.492188 0)"/>
      <use xlink:href="#DejaVuSans-43" transform="translate(802.685547 0)"/>
      <use xlink:href="#DejaVuSans-20" transform="translate(872.509766 0)"/>
      <use xlink:href="#DejaVuSans-3d" transform="translate(904.296875 0)"/>
      <use xlink:href="#DejaVuSans-20" transform="translate(988.085938 0)"/>
      <use xlink:href="#DejaVuSans-30" transform="translate(1019.873047 0)"/>
      <use xlink:href="#DejaVuSans-2e" transform="translate(1083.496094 0)"/>
      <use xlink:href="#DejaVuSans-39" transform="translate(1115.283203 0)"/>
      <use xlink:href="#DejaVuSans-32" transform="translate(1178.90625 0)"/>
      <use xlink:href="#DejaVuSans-29" transform="translate(1242.529297 0)"/>
     </g>
    </g>
    <g id="line2d_21">
     <path d="M 198.635104 286.108438 
L 212.635104 286.108438 
L 226.635104 286.108438 
" style="fill: none; stroke: #c66526; stroke-width: 3; stroke-linecap: square"/>
    </g>
    <g id="text_19">
     <!-- TD (AUC = 0.80) -->
     <g transform="translate(237.835104 291.008438) scale(0.14 -0.14)">
      <use xlink:href="#DejaVuSans-54"/>
      <use xlink:href="#DejaVuSans-44" transform="translate(61.083984 0)"/>
      <use xlink:href="#DejaVuSans-20" transform="translate(138.085938 0)"/>
      <use xlink:href="#DejaVuSans-28" transform="translate(169.873047 0)"/>
      <use xlink:href="#DejaVuSans-41" transform="translate(208.886719 0)"/>
      <use xlink:href="#DejaVuSans-55" transform="translate(277.294922 0)"/>
      <use xlink:href="#DejaVuSans-43" transform="translate(350.488281 0)"/>
      <use xlink:href="#DejaVuSans-20" transform="translate(420.3125 0)"/>
      <use xlink:href="#DejaVuSans-3d" transform="translate(452.099609 0)"/>
      <use xlink:href="#DejaVuSans-20" transform="translate(535.888672 0)"/>
      <use xlink:href="#DejaVuSans-30" transform="translate(567.675781 0)"/>
      <use xlink:href="#DejaVuSans-2e" transform="translate(631.298828 0)"/>
      <use xlink:href="#DejaVuSans-38" transform="translate(663.085938 0)"/>
      <use xlink:href="#DejaVuSans-30" transform="translate(726.708984 0)"/>
      <use xlink:href="#DejaVuSans-29" transform="translate(790.332031 0)"/>
     </g>
    </g>
   </g>
  </g>
  <g id="axes_2">
   <g id="patch_8">
    <path d="M 485.946667 306.52 
L 851.158333 306.52 
L 851.158333 32.64 
L 485.946667 32.64 
z
" style="fill: #ffffff"/>
   </g>
   <g id="matplotlib.axis_3">
    <g id="xtick_7">
     <g id="line2d_22">
      <g>
       <use xlink:href="#m2b7f016cd5" x="485.946667" y="306.52" style="stroke: #000000; stroke-width: 0.8"/>
      </g>
     </g>
     <g id="text_20">
      <!-- 0.0 -->
      <g transform="translate(473.224167 325.6775) scale(0.16 -0.16)">
       <use xlink:href="#DejaVuSans-30"/>
       <use xlink:href="#DejaVuSans-2e" transform="translate(63.623047 0)"/>
       <use xlink:href="#DejaVuSans-30" transform="translate(95.410156 0)"/>
      </g>
     </g>
    </g>
    <g id="xtick_8">
     <g id="line2d_23">
      <g>
       <use xlink:href="#m2b7f016cd5" x="558.989" y="306.52" style="stroke: #000000; stroke-width: 0.8"/>
      </g>
     </g>
     <g id="text_21">
      <!-- 0.2 -->
      <g transform="translate(546.2665 325.6775) scale(0.16 -0.16)">
       <use xlink:href="#DejaVuSans-30"/>
       <use xlink:href="#DejaVuSans-2e" transform="translate(63.623047 0)"/>
       <use xlink:href="#DejaVuSans-32" transform="translate(95.410156 0)"/>
      </g>
     </g>
    </g>
    <g id="xtick_9">
     <g id="line2d_24">
      <g>
       <use xlink:href="#m2b7f016cd5" x="632.031333" y="306.52" style="stroke: #000000; stroke-width: 0.8"/>
      </g>
     </g>
     <g id="text_22">
      <!-- 0.4 -->
      <g transform="translate(619.308833 325.6775) scale(0.16 -0.16)">
       <use xlink:href="#DejaVuSans-30"/>
       <use xlink:href="#DejaVuSans-2e" transform="translate(63.623047 0)"/>
       <use xlink:href="#DejaVuSans-34" transform="translate(95.410156 0)"/>
      </g>
     </g>
    </g>
    <g id="xtick_10">
     <g id="line2d_25">
      <g>
       <use xlink:href="#m2b7f016cd5" x="705.073667" y="306.52" style="stroke: #000000; stroke-width: 0.8"/>
      </g>
     </g>
     <g id="text_23">
      <!-- 0.6 -->
      <g transform="translate(692.351167 325.6775) scale(0.16 -0.16)">
       <use xlink:href="#DejaVuSans-30"/>
       <use xlink:href="#DejaVuSans-2e" transform="translate(63.623047 0)"/>
       <use xlink:href="#DejaVuSans-36" transform="translate(95.410156 0)"/>
      </g>
     </g>
    </g>
    <g id="xtick_11">
     <g id="line2d_26">
      <g>
       <use xlink:href="#m2b7f016cd5" x="778.116" y="306.52" style="stroke: #000000; stroke-width: 0.8"/>
      </g>
     </g>
     <g id="text_24">
      <!-- 0.8 -->
      <g transform="translate(765.3935 325.6775) scale(0.16 -0.16)">
       <use xlink:href="#DejaVuSans-30"/>
       <use xlink:href="#DejaVuSans-2e" transform="translate(63.623047 0)"/>
       <use xlink:href="#DejaVuSans-38" transform="translate(95.410156 0)"/>
      </g>
     </g>
    </g>
    <g id="xtick_12">
     <g id="line2d_27">
      <g>
       <use xlink:href="#m2b7f016cd5" x="851.158333" y="306.52" style="stroke: #000000; stroke-width: 0.8"/>
      </g>
     </g>
     <g id="text_25">
      <!-- 1.0 -->
      <g transform="translate(838.435833 325.6775) scale(0.16 -0.16)">
       <use xlink:href="#DejaVuSans-31"/>
       <use xlink:href="#DejaVuSans-2e" transform="translate(63.623047 0)"/>
       <use xlink:href="#DejaVuSans-30" transform="translate(95.410156 0)"/>
      </g>
     </g>
    </g>
    <g id="text_26">
     <!-- False Positive Rate -->
     <g transform="translate(584.912969 346.682187) scale(0.18 -0.18)">
      <use xlink:href="#DejaVuSans-46"/>
      <use xlink:href="#DejaVuSans-61" transform="translate(48.394531 0)"/>
      <use xlink:href="#DejaVuSans-6c" transform="translate(109.673828 0)"/>
      <use xlink:href="#DejaVuSans-73" transform="translate(137.457031 0)"/>
      <use xlink:href="#DejaVuSans-65" transform="translate(189.556641 0)"/>
      <use xlink:href="#DejaVuSans-20" transform="translate(251.080078 0)"/>
      <use xlink:href="#DejaVuSans-50" transform="translate(282.867188 0)"/>
      <use xlink:href="#DejaVuSans-6f" transform="translate(339.544922 0)"/>
      <use xlink:href="#DejaVuSans-73" transform="translate(400.726562 0)"/>
      <use xlink:href="#DejaVuSans-69" transform="translate(452.826172 0)"/>
      <use xlink:href="#DejaVuSans-74" transform="translate(480.609375 0)"/>
      <use xlink:href="#DejaVuSans-69" transform="translate(519.818359 0)"/>
      <use xlink:href="#DejaVuSans-76" transform="translate(547.601562 0)"/>
      <use xlink:href="#DejaVuSans-65" transform="translate(606.78125 0)"/>
      <use xlink:href="#DejaVuSans-20" transform="translate(668.304688 0)"/>
      <use xlink:href="#DejaVuSans-52" transform="translate(700.091797 0)"/>
      <use xlink:href="#DejaVuSans-61" transform="translate(767.324219 0)"/>
      <use xlink:href="#DejaVuSans-74" transform="translate(828.603516 0)"/>
      <use xlink:href="#DejaVuSans-65" transform="translate(867.8125 0)"/>
     </g>
    </g>
   </g>
   <g id="matplotlib.axis_4">
    <g id="ytick_7">
     <g id="line2d_28">
      <g>
       <use xlink:href="#m7ceb61fd49" x="485.946667" y="306.52" style="stroke: #000000; stroke-width: 0.8"/>
      </g>
     </g>
     <g id="text_27">
      <!-- 0.0 -->
      <g transform="translate(453.501667 312.59875) scale(0.16 -0.16)">
       <use xlink:href="#DejaVuSans-30"/>
       <use xlink:href="#DejaVuSans-2e" transform="translate(63.623047 0)"/>
       <use xlink:href="#DejaVuSans-30" transform="translate(95.410156 0)"/>
      </g>
     </g>
    </g>
    <g id="ytick_8">
     <g id="line2d_29">
      <g>
       <use xlink:href="#m7ceb61fd49" x="485.946667" y="254.352381" style="stroke: #000000; stroke-width: 0.8"/>
      </g>
     </g>
     <g id="text_28">
      <!-- 0.2 -->
      <g transform="translate(453.501667 260.431131) scale(0.16 -0.16)">
       <use xlink:href="#DejaVuSans-30"/>
       <use xlink:href="#DejaVuSans-2e" transform="translate(63.623047 0)"/>
       <use xlink:href="#DejaVuSans-32" transform="translate(95.410156 0)"/>
      </g>
     </g>
    </g>
    <g id="ytick_9">
     <g id="line2d_30">
      <g>
       <use xlink:href="#m7ceb61fd49" x="485.946667" y="202.184762" style="stroke: #000000; stroke-width: 0.8"/>
      </g>
     </g>
     <g id="text_29">
      <!-- 0.4 -->
      <g transform="translate(453.501667 208.263512) scale(0.16 -0.16)">
       <use xlink:href="#DejaVuSans-30"/>
       <use xlink:href="#DejaVuSans-2e" transform="translate(63.623047 0)"/>
       <use xlink:href="#DejaVuSans-34" transform="translate(95.410156 0)"/>
      </g>
     </g>
    </g>
    <g id="ytick_10">
     <g id="line2d_31">
      <g>
       <use xlink:href="#m7ceb61fd49" x="485.946667" y="150.017143" style="stroke: #000000; stroke-width: 0.8"/>
      </g>
     </g>
     <g id="text_30">
      <!-- 0.6 -->
      <g transform="translate(453.501667 156.095893) scale(0.16 -0.16)">
       <use xlink:href="#DejaVuSans-30"/>
       <use xlink:href="#DejaVuSans-2e" transform="translate(63.623047 0)"/>
       <use xlink:href="#DejaVuSans-36" transform="translate(95.410156 0)"/>
      </g>
     </g>
    </g>
    <g id="ytick_11">
     <g id="line2d_32">
      <g>
       <use xlink:href="#m7ceb61fd49" x="485.946667" y="97.849524" style="stroke: #000000; stroke-width: 0.8"/>
      </g>
     </g>
     <g id="text_31">
      <!-- 0.8 -->
      <g transform="translate(453.501667 103.928274) scale(0.16 -0.16)">
       <use xlink:href="#DejaVuSans-30"/>
       <use xlink:href="#DejaVuSans-2e" transform="translate(63.623047 0)"/>
       <use xlink:href="#DejaVuSans-38" transform="translate(95.410156 0)"/>
      </g>
     </g>
    </g>
    <g id="ytick_12">
     <g id="line2d_33">
      <g>
       <use xlink:href="#m7ceb61fd49" x="485.946667" y="45.681905" style="stroke: #000000; stroke-width: 0.8"/>
      </g>
     </g>
     <g id="text_32">
      <!-- 1.0 -->
      <g transform="translate(453.501667 51.760655) scale(0.16 -0.16)">
       <use xlink:href="#DejaVuSans-31"/>
       <use xlink:href="#DejaVuSans-2e" transform="translate(63.623047 0)"/>
       <use xlink:href="#DejaVuSans-30" transform="translate(95.410156 0)"/>
      </g>
     </g>
    </g>
   </g>
   <g id="line2d_34">
    <path d="M 485.946667 306.52 
L 485.946667 298.615815 
L 485.946667 259.094892 
L 493.555243 259.094892 
L 493.555243 251.190707 
L 501.163819 251.190707 
L 501.163819 227.478153 
L 508.772396 227.478153 
L 508.772396 219.573968 
L 516.380972 219.573968 
L 516.380972 195.861414 
L 539.206701 195.861414 
L 539.206701 187.957229 
L 577.249583 187.957229 
L 577.249583 172.14886 
L 584.85816 172.14886 
L 584.85816 132.627937 
L 592.466736 132.627937 
L 592.466736 116.819567 
L 600.075313 116.819567 
L 600.075313 108.915382 
L 683.769653 108.915382 
L 683.769653 101.011198 
L 698.986806 101.011198 
L 698.986806 93.107013 
L 706.595382 93.107013 
L 706.595382 85.202828 
L 721.812535 85.202828 
L 721.812535 77.298644 
L 737.029688 77.298644 
L 737.029688 69.394459 
L 782.681146 69.394459 
L 782.681146 61.490274 
L 813.115451 61.490274 
L 813.115451 53.586089 
L 828.332604 53.586089 
L 828.332604 45.681905 
L 851.158333 45.681905 
" clip-path="url(#p812b5a3e1d)" style="fill: none; stroke: #3171ad; stroke-width: 3; stroke-linecap: square"/>
   </g>
   <g id="line2d_35">
    <path d="M 485.946667 306.52 
L 491.163976 306.52 
L 491.163976 282.807446 
L 527.685143 282.807446 
L 527.685143 259.094892 
L 532.902452 259.094892 
L 532.902452 235.382338 
L 548.554381 235.382338 
L 548.554381 211.669784 
L 647.683262 211.669784 
L 647.683262 187.957229 
L 663.33519 187.957229 
L 663.33519 164.244675 
L 673.76981 164.244675 
L 673.76981 140.532121 
L 710.290976 140.532121 
L 710.290976 116.819567 
L 715.508286 116.819567 
L 715.508286 93.107013 
L 788.550619 93.107013 
L 788.550619 69.394459 
L 793.767929 69.394459 
L 793.767929 45.681905 
L 851.158333 45.681905 
" clip-path="url(#p812b5a3e1d)" style="fill: none; stroke: #d39233; stroke-width: 3; stroke-linecap: square"/>
   </g>
   <g id="line2d_36">
    <path d="M 485.946667 306.52 
L 490.752083 306.52 
L 538.80625 306.52 
L 538.80625 254.352381 
L 572.444167 254.352381 
L 572.444167 202.184762 
L 586.860417 202.184762 
L 586.860417 150.017143 
L 649.330833 150.017143 
L 649.330833 45.681905 
L 851.158333 45.681905 
" clip-path="url(#p812b5a3e1d)" style="fill: none; stroke: #469c76; stroke-width: 3; stroke-linecap: square"/>
   </g>
   <g id="line2d_37">
    <path d="M 485.946667 306.52 
L 485.946667 298.36881 
L 485.946667 249.461667 
L 493.399966 249.461667 
L 493.399966 225.008095 
L 508.306565 225.008095 
L 508.306565 216.856905 
L 523.213163 216.856905 
L 523.213163 200.554524 
L 530.666463 200.554524 
L 530.666463 192.403333 
L 538.119762 192.403333 
L 538.119762 184.252143 
L 553.026361 184.252143 
L 553.026361 151.647381 
L 560.47966 151.647381 
L 560.47966 127.19381 
L 590.292857 127.19381 
L 590.292857 102.740238 
L 605.199456 102.740238 
L 605.199456 86.437857 
L 627.559354 86.437857 
L 627.559354 78.286667 
L 716.998946 78.286667 
L 716.998946 61.984286 
L 731.905544 61.984286 
L 731.905544 53.833095 
L 761.718741 53.833095 
L 761.718741 45.681905 
L 851.158333 45.681905 
" clip-path="url(#p812b5a3e1d)" style="fill: none; stroke: #c66526; stroke-width: 3; stroke-linecap: square"/>
   </g>
   <g id="line2d_38">
    <path d="M 485.946667 306.52 
L 851.158333 45.681905 
" clip-path="url(#p812b5a3e1d)" style="fill: none; stroke-dasharray: 7.4,3.2; stroke-dashoffset: 0; stroke: #000000; stroke-width: 2"/>
   </g>
   <g id="patch_9">
    <path d="M 485.946667 306.52 
L 485.946667 32.64 
" style="fill: none; stroke: #000000; stroke-width: 0.8; stroke-linejoin: miter; stroke-linecap: square"/>
   </g>
   <g id="patch_10">
    <path d="M 851.158333 306.52 
L 851.158333 32.64 
" style="fill: none; stroke: #000000; stroke-width: 0.8; stroke-linejoin: miter; stroke-linecap: square"/>
   </g>
   <g id="patch_11">
    <path d="M 485.946667 306.52 
L 851.158333 306.52 
" style="fill: none; stroke: #000000; stroke-width: 0.8; stroke-linejoin: miter; stroke-linecap: square"/>
   </g>
   <g id="patch_12">
    <path d="M 485.946667 32.64 
L 851.158333 32.64 
" style="fill: none; stroke: #000000; stroke-width: 0.8; stroke-linejoin: miter; stroke-linecap: square"/>
   </g>
   <g id="text_33">
    <!-- Validation ROC Curve -->
    <g transform="translate(561.50875 26.64) scale(0.2 -0.2)">
     <defs>
      <path id="DejaVuSans-56" d="M 1831 0 
L 50 4666 
L 709 4666 
L 2188 738 
L 3669 4666 
L 4325 4666 
L 2547 0 
L 1831 0 
z
" transform="scale(0.015625)"/>
      <path id="DejaVuSans-64" d="M 2906 2969 
L 2906 4863 
L 3481 4863 
L 3481 0 
L 2906 0 
L 2906 525 
Q 2725 213 2448 61 
Q 2172 -91 1784 -91 
Q 1150 -91 751 415 
Q 353 922 353 1747 
Q 353 2572 751 3078 
Q 1150 3584 1784 3584 
Q 2172 3584 2448 3432 
Q 2725 3281 2906 2969 
z
M 947 1747 
Q 947 1113 1208 752 
Q 1469 391 1925 391 
Q 2381 391 2643 752 
Q 2906 1113 2906 1747 
Q 2906 2381 2643 2742 
Q 2381 3103 1925 3103 
Q 1469 3103 1208 2742 
Q 947 2381 947 1747 
z
" transform="scale(0.015625)"/>
     </defs>
     <use xlink:href="#DejaVuSans-56"/>
     <use xlink:href="#DejaVuSans-61" transform="translate(60.658203 0)"/>
     <use xlink:href="#DejaVuSans-6c" transform="translate(121.9375 0)"/>
     <use xlink:href="#DejaVuSans-69" transform="translate(149.720703 0)"/>
     <use xlink:href="#DejaVuSans-64" transform="translate(177.503906 0)"/>
     <use xlink:href="#DejaVuSans-61" transform="translate(240.980469 0)"/>
     <use xlink:href="#DejaVuSans-74" transform="translate(302.259766 0)"/>
     <use xlink:href="#DejaVuSans-69" transform="translate(341.46875 0)"/>
     <use xlink:href="#DejaVuSans-6f" transform="translate(369.251953 0)"/>
     <use xlink:href="#DejaVuSans-6e" transform="translate(430.433594 0)"/>
     <use xlink:href="#DejaVuSans-20" transform="translate(493.8125 0)"/>
     <use xlink:href="#DejaVuSans-52" transform="translate(525.599609 0)"/>
     <use xlink:href="#DejaVuSans-4f" transform="translate(595.082031 0)"/>
     <use xlink:href="#DejaVuSans-43" transform="translate(673.792969 0)"/>
     <use xlink:href="#DejaVuSans-20" transform="translate(743.617188 0)"/>
     <use xlink:href="#DejaVuSans-43" transform="translate(775.404297 0)"/>
     <use xlink:href="#DejaVuSans-75" transform="translate(845.228516 0)"/>
     <use xlink:href="#DejaVuSans-72" transform="translate(908.607422 0)"/>
     <use xlink:href="#DejaVuSans-76" transform="translate(949.720703 0)"/>
     <use xlink:href="#DejaVuSans-65" transform="translate(1008.900391 0)"/>
    </g>
   </g>
   <g id="legend_2">
    <g id="patch_13">
     <path d="M 617.141771 299.52 
L 841.358333 299.52 
Q 844.158333 299.52 844.158333 296.72 
L 844.158333 215.9225 
Q 844.158333 213.1225 841.358333 213.1225 
L 617.141771 213.1225 
Q 614.341771 213.1225 614.341771 215.9225 
L 614.341771 296.72 
Q 614.341771 299.52 617.141771 299.52 
z
" style="fill: #ffffff; opacity: 0.8; stroke: #cccccc; stroke-linejoin: miter"/>
    </g>
    <g id="line2d_39">
     <path d="M 619.941771 224.460312 
L 633.941771 224.460312 
L 647.941771 224.460312 
" style="fill: none; stroke: #3171ad; stroke-width: 3; stroke-linecap: square"/>
    </g>
    <g id="text_34">
     <!-- ADHD (AUC = 0.73) -->
     <g transform="translate(659.141771 229.360312) scale(0.14 -0.14)">
      <defs>
       <path id="DejaVuSans-37" d="M 525 4666 
L 3525 4666 
L 3525 4397 
L 1831 0 
L 1172 0 
L 2766 4134 
L 525 4134 
L 525 4666 
z
" transform="scale(0.015625)"/>
       <path id="DejaVuSans-33" d="M 2597 2516 
Q 3050 2419 3304 2112 
Q 3559 1806 3559 1356 
Q 3559 666 3084 287 
Q 2609 -91 1734 -91 
Q 1441 -91 1130 -33 
Q 819 25 488 141 
L 488 750 
Q 750 597 1062 519 
Q 1375 441 1716 441 
Q 2309 441 2620 675 
Q 2931 909 2931 1356 
Q 2931 1769 2642 2001 
Q 2353 2234 1838 2234 
L 1294 2234 
L 1294 2753 
L 1863 2753 
Q 2328 2753 2575 2939 
Q 2822 3125 2822 3475 
Q 2822 3834 2567 4026 
Q 2313 4219 1838 4219 
Q 1578 4219 1281 4162 
Q 984 4106 628 3988 
L 628 4550 
Q 988 4650 1302 4700 
Q 1616 4750 1894 4750 
Q 2613 4750 3031 4423 
Q 3450 4097 3450 3541 
Q 3450 3153 3228 2886 
Q 3006 2619 2597 2516 
z
" transform="scale(0.015625)"/>
      </defs>
      <use xlink:href="#DejaVuSans-41"/>
      <use xlink:href="#DejaVuSans-44" transform="translate(68.408203 0)"/>
      <use xlink:href="#DejaVuSans-48" transform="translate(145.410156 0)"/>
      <use xlink:href="#DejaVuSans-44" transform="translate(220.605469 0)"/>
      <use xlink:href="#DejaVuSans-20" transform="translate(297.607422 0)"/>
      <use xlink:href="#DejaVuSans-28" transform="translate(329.394531 0)"/>
      <use xlink:href="#DejaVuSans-41" transform="translate(368.408203 0)"/>
      <use xlink:href="#DejaVuSans-55" transform="translate(436.816406 0)"/>
      <use xlink:href="#DejaVuSans-43" transform="translate(510.009766 0)"/>
      <use xlink:href="#DejaVuSans-20" transform="translate(579.833984 0)"/>
      <use xlink:href="#DejaVuSans-3d" transform="translate(611.621094 0)"/>
      <use xlink:href="#DejaVuSans-20" transform="translate(695.410156 0)"/>
      <use xlink:href="#DejaVuSans-30" transform="translate(727.197266 0)"/>
      <use xlink:href="#DejaVuSans-2e" transform="translate(790.820312 0)"/>
      <use xlink:href="#DejaVuSans-37" transform="translate(822.607422 0)"/>
      <use xlink:href="#DejaVuSans-33" transform="translate(886.230469 0)"/>
      <use xlink:href="#DejaVuSans-29" transform="translate(949.853516 0)"/>
     </g>
    </g>
    <g id="line2d_40">
     <path d="M 619.941771 245.009687 
L 633.941771 245.009687 
L 647.941771 245.009687 
" style="fill: none; stroke: #d39233; stroke-width: 3; stroke-linecap: square"/>
    </g>
    <g id="text_35">
     <!-- ASD (AUC = 0.56) -->
     <g transform="translate(659.141771 249.909687) scale(0.14 -0.14)">
      <defs>
       <path id="DejaVuSans-35" d="M 691 4666 
L 3169 4666 
L 3169 4134 
L 1269 4134 
L 1269 2991 
Q 1406 3038 1543 3061 
Q 1681 3084 1819 3084 
Q 2600 3084 3056 2656 
Q 3513 2228 3513 1497 
Q 3513 744 3044 326 
Q 2575 -91 1722 -91 
Q 1428 -91 1123 -41 
Q 819 9 494 109 
L 494 744 
Q 775 591 1075 516 
Q 1375 441 1709 441 
Q 2250 441 2565 725 
Q 2881 1009 2881 1497 
Q 2881 1984 2565 2268 
Q 2250 2553 1709 2553 
Q 1456 2553 1204 2497 
Q 953 2441 691 2322 
L 691 4666 
z
" transform="scale(0.015625)"/>
      </defs>
      <use xlink:href="#DejaVuSans-41"/>
      <use xlink:href="#DejaVuSans-53" transform="translate(68.408203 0)"/>
      <use xlink:href="#DejaVuSans-44" transform="translate(131.884766 0)"/>
      <use xlink:href="#DejaVuSans-20" transform="translate(208.886719 0)"/>
      <use xlink:href="#DejaVuSans-28" transform="translate(240.673828 0)"/>
      <use xlink:href="#DejaVuSans-41" transform="translate(279.6875 0)"/>
      <use xlink:href="#DejaVuSans-55" transform="translate(348.095703 0)"/>
      <use xlink:href="#DejaVuSans-43" transform="translate(421.289062 0)"/>
      <use xlink:href="#DejaVuSans-20" transform="translate(491.113281 0)"/>
      <use xlink:href="#DejaVuSans-3d" transform="translate(522.900391 0)"/>
      <use xlink:href="#DejaVuSans-20" transform="translate(606.689453 0)"/>
      <use xlink:href="#DejaVuSans-30" transform="translate(638.476562 0)"/>
      <use xlink:href="#DejaVuSans-2e" transform="translate(702.099609 0)"/>
      <use xlink:href="#DejaVuSans-35" transform="translate(733.886719 0)"/>
      <use xlink:href="#DejaVuSans-36" transform="translate(797.509766 0)"/>
      <use xlink:href="#DejaVuSans-29" transform="translate(861.132812 0)"/>
     </g>
    </g>
    <g id="line2d_41">
     <path d="M 619.941771 265.559063 
L 633.941771 265.559063 
L 647.941771 265.559063 
" style="fill: none; stroke: #469c76; stroke-width: 3; stroke-linecap: square"/>
    </g>
    <g id="text_36">
     <!-- ASD+ADHD (AUC = 0.69) -->
     <g transform="translate(659.141771 270.459063) scale(0.14 -0.14)">
      <use xlink:href="#DejaVuSans-41"/>
      <use xlink:href="#DejaVuSans-53" transform="translate(68.408203 0)"/>
      <use xlink:href="#DejaVuSans-44" transform="translate(131.884766 0)"/>
      <use xlink:href="#DejaVuSans-2b" transform="translate(208.886719 0)"/>
      <use xlink:href="#DejaVuSans-41" transform="translate(292.675781 0)"/>
      <use xlink:href="#DejaVuSans-44" transform="translate(361.083984 0)"/>
      <use xlink:href="#DejaVuSans-48" transform="translate(438.085938 0)"/>
      <use xlink:href="#DejaVuSans-44" transform="translate(513.28125 0)"/>
      <use xlink:href="#DejaVuSans-20" transform="translate(590.283203 0)"/>
      <use xlink:href="#DejaVuSans-28" transform="translate(622.070312 0)"/>
      <use xlink:href="#DejaVuSans-41" transform="translate(661.083984 0)"/>
      <use xlink:href="#DejaVuSans-55" transform="translate(729.492188 0)"/>
      <use xlink:href="#DejaVuSans-43" transform="translate(802.685547 0)"/>
      <use xlink:href="#DejaVuSans-20" transform="translate(872.509766 0)"/>
      <use xlink:href="#DejaVuSans-3d" transform="translate(904.296875 0)"/>
      <use xlink:href="#DejaVuSans-20" transform="translate(988.085938 0)"/>
      <use xlink:href="#DejaVuSans-30" transform="translate(1019.873047 0)"/>
      <use xlink:href="#DejaVuSans-2e" transform="translate(1083.496094 0)"/>
      <use xlink:href="#DejaVuSans-36" transform="translate(1115.283203 0)"/>
      <use xlink:href="#DejaVuSans-39" transform="translate(1178.90625 0)"/>
      <use xlink:href="#DejaVuSans-29" transform="translate(1242.529297 0)"/>
     </g>
    </g>
    <g id="line2d_42">
     <path d="M 619.941771 286.108438 
L 633.941771 286.108438 
L 647.941771 286.108438 
" style="fill: none; stroke: #c66526; stroke-width: 3; stroke-linecap: square"/>
    </g>
    <g id="text_37">
     <!-- TD (AUC = 0.80) -->
     <g transform="translate(659.141771 291.008438) scale(0.14 -0.14)">
      <use xlink:href="#DejaVuSans-54"/>
      <use xlink:href="#DejaVuSans-44" transform="translate(61.083984 0)"/>
      <use xlink:href="#DejaVuSans-20" transform="translate(138.085938 0)"/>
      <use xlink:href="#DejaVuSans-28" transform="translate(169.873047 0)"/>
      <use xlink:href="#DejaVuSans-41" transform="translate(208.886719 0)"/>
      <use xlink:href="#DejaVuSans-55" transform="translate(277.294922 0)"/>
      <use xlink:href="#DejaVuSans-43" transform="translate(350.488281 0)"/>
      <use xlink:href="#DejaVuSans-20" transform="translate(420.3125 0)"/>
      <use xlink:href="#DejaVuSans-3d" transform="translate(452.099609 0)"/>
      <use xlink:href="#DejaVuSans-20" transform="translate(535.888672 0)"/>
      <use xlink:href="#DejaVuSans-30" transform="translate(567.675781 0)"/>
      <use xlink:href="#DejaVuSans-2e" transform="translate(631.298828 0)"/>
      <use xlink:href="#DejaVuSans-38" transform="translate(663.085938 0)"/>
      <use xlink:href="#DejaVuSans-30" transform="translate(726.708984 0)"/>
      <use xlink:href="#DejaVuSans-29" transform="translate(790.332031 0)"/>
     </g>
    </g>
   </g>
  </g>
  <g id="axes_3">
   <g id="patch_14">
    <path d="M 907.253333 306.52 
L 1272.465 306.52 
L 1272.465 32.64 
L 907.253333 32.64 
z
" style="fill: #ffffff"/>
   </g>
   <g id="matplotlib.axis_5">
    <g id="xtick_13">
     <g id="line2d_43">
      <g>
       <use xlink:href="#m2b7f016cd5" x="907.253333" y="306.52" style="stroke: #000000; stroke-width: 0.8"/>
      </g>
     </g>
     <g id="text_38">
      <!-- 0.0 -->
      <g transform="translate(894.530833 325.6775) scale(0.16 -0.16)">
       <use xlink:href="#DejaVuSans-30"/>
       <use xlink:href="#DejaVuSans-2e" transform="translate(63.623047 0)"/>
       <use xlink:href="#DejaVuSans-30" transform="translate(95.410156 0)"/>
      </g>
     </g>
    </g>
    <g id="xtick_14">
     <g id="line2d_44">
      <g>
       <use xlink:href="#m2b7f016cd5" x="980.295667" y="306.52" style="stroke: #000000; stroke-width: 0.8"/>
      </g>
     </g>
     <g id="text_39">
      <!-- 0.2 -->
      <g transform="translate(967.573167 325.6775) scale(0.16 -0.16)">
       <use xlink:href="#DejaVuSans-30"/>
       <use xlink:href="#DejaVuSans-2e" transform="translate(63.623047 0)"/>
       <use xlink:href="#DejaVuSans-32" transform="translate(95.410156 0)"/>
      </g>
     </g>
    </g>
    <g id="xtick_15">
     <g id="line2d_45">
      <g>
       <use xlink:href="#m2b7f016cd5" x="1053.338" y="306.52" style="stroke: #000000; stroke-width: 0.8"/>
      </g>
     </g>
     <g id="text_40">
      <!-- 0.4 -->
      <g transform="translate(1040.6155 325.6775) scale(0.16 -0.16)">
       <use xlink:href="#DejaVuSans-30"/>
       <use xlink:href="#DejaVuSans-2e" transform="translate(63.623047 0)"/>
       <use xlink:href="#DejaVuSans-34" transform="translate(95.410156 0)"/>
      </g>
     </g>
    </g>
    <g id="xtick_16">
     <g id="line2d_46">
      <g>
       <use xlink:href="#m2b7f016cd5" x="1126.380333" y="306.52" style="stroke: #000000; stroke-width: 0.8"/>
      </g>
     </g>
     <g id="text_41">
      <!-- 0.6 -->
      <g transform="translate(1113.657833 325.6775) scale(0.16 -0.16)">
       <use xlink:href="#DejaVuSans-30"/>
       <use xlink:href="#DejaVuSans-2e" transform="translate(63.623047 0)"/>
       <use xlink:href="#DejaVuSans-36" transform="translate(95.410156 0)"/>
      </g>
     </g>
    </g>
    <g id="xtick_17">
     <g id="line2d_47">
      <g>
       <use xlink:href="#m2b7f016cd5" x="1199.422667" y="306.52" style="stroke: #000000; stroke-width: 0.8"/>
      </g>
     </g>
     <g id="text_42">
      <!-- 0.8 -->
      <g transform="translate(1186.700167 325.6775) scale(0.16 -0.16)">
       <use xlink:href="#DejaVuSans-30"/>
       <use xlink:href="#DejaVuSans-2e" transform="translate(63.623047 0)"/>
       <use xlink:href="#DejaVuSans-38" transform="translate(95.410156 0)"/>
      </g>
     </g>
    </g>
    <g id="xtick_18">
     <g id="line2d_48">
      <g>
       <use xlink:href="#m2b7f016cd5" x="1272.465" y="306.52" style="stroke: #000000; stroke-width: 0.8"/>
      </g>
     </g>
     <g id="text_43">
      <!-- 1.0 -->
      <g transform="translate(1259.7425 325.6775) scale(0.16 -0.16)">
       <use xlink:href="#DejaVuSans-31"/>
       <use xlink:href="#DejaVuSans-2e" transform="translate(63.623047 0)"/>
       <use xlink:href="#DejaVuSans-30" transform="translate(95.410156 0)"/>
      </g>
     </g>
    </g>
    <g id="text_44">
     <!-- False Positive Rate -->
     <g transform="translate(1006.219635 346.682187) scale(0.18 -0.18)">
      <use xlink:href="#DejaVuSans-46"/>
      <use xlink:href="#DejaVuSans-61" transform="translate(48.394531 0)"/>
      <use xlink:href="#DejaVuSans-6c" transform="translate(109.673828 0)"/>
      <use xlink:href="#DejaVuSans-73" transform="translate(137.457031 0)"/>
      <use xlink:href="#DejaVuSans-65" transform="translate(189.556641 0)"/>
      <use xlink:href="#DejaVuSans-20" transform="translate(251.080078 0)"/>
      <use xlink:href="#DejaVuSans-50" transform="translate(282.867188 0)"/>
      <use xlink:href="#DejaVuSans-6f" transform="translate(339.544922 0)"/>
      <use xlink:href="#DejaVuSans-73" transform="translate(400.726562 0)"/>
      <use xlink:href="#DejaVuSans-69" transform="translate(452.826172 0)"/>
      <use xlink:href="#DejaVuSans-74" transform="translate(480.609375 0)"/>
      <use xlink:href="#DejaVuSans-69" transform="translate(519.818359 0)"/>
      <use xlink:href="#DejaVuSans-76" transform="translate(547.601562 0)"/>
      <use xlink:href="#DejaVuSans-65" transform="translate(606.78125 0)"/>
      <use xlink:href="#DejaVuSans-20" transform="translate(668.304688 0)"/>
      <use xlink:href="#DejaVuSans-52" transform="translate(700.091797 0)"/>
      <use xlink:href="#DejaVuSans-61" transform="translate(767.324219 0)"/>
      <use xlink:href="#DejaVuSans-74" transform="translate(828.603516 0)"/>
      <use xlink:href="#DejaVuSans-65" transform="translate(867.8125 0)"/>
     </g>
    </g>
   </g>
   <g id="matplotlib.axis_6">
    <g id="ytick_13">
     <g id="line2d_49">
      <g>
       <use xlink:href="#m7ceb61fd49" x="907.253333" y="306.52" style="stroke: #000000; stroke-width: 0.8"/>
      </g>
     </g>
     <g id="text_45">
      <!-- 0.0 -->
      <g transform="translate(874.808333 312.59875) scale(0.16 -0.16)">
       <use xlink:href="#DejaVuSans-30"/>
       <use xlink:href="#DejaVuSans-2e" transform="translate(63.623047 0)"/>
       <use xlink:href="#DejaVuSans-30" transform="translate(95.410156 0)"/>
      </g>
     </g>
    </g>
    <g id="ytick_14">
     <g id="line2d_50">
      <g>
       <use xlink:href="#m7ceb61fd49" x="907.253333" y="254.352381" style="stroke: #000000; stroke-width: 0.8"/>
      </g>
     </g>
     <g id="text_46">
      <!-- 0.2 -->
      <g transform="translate(874.808333 260.431131) scale(0.16 -0.16)">
       <use xlink:href="#DejaVuSans-30"/>
       <use xlink:href="#DejaVuSans-2e" transform="translate(63.623047 0)"/>
       <use xlink:href="#DejaVuSans-32" transform="translate(95.410156 0)"/>
      </g>
     </g>
    </g>
    <g id="ytick_15">
     <g id="line2d_51">
      <g>
       <use xlink:href="#m7ceb61fd49" x="907.253333" y="202.184762" style="stroke: #000000; stroke-width: 0.8"/>
      </g>
     </g>
     <g id="text_47">
      <!-- 0.4 -->
      <g transform="translate(874.808333 208.263512) scale(0.16 -0.16)">
       <use xlink:href="#DejaVuSans-30"/>
       <use xlink:href="#DejaVuSans-2e" transform="translate(63.623047 0)"/>
       <use xlink:href="#DejaVuSans-34" transform="translate(95.410156 0)"/>
      </g>
     </g>
    </g>
    <g id="ytick_16">
     <g id="line2d_52">
      <g>
       <use xlink:href="#m7ceb61fd49" x="907.253333" y="150.017143" style="stroke: #000000; stroke-width: 0.8"/>
      </g>
     </g>
     <g id="text_48">
      <!-- 0.6 -->
      <g transform="translate(874.808333 156.095893) scale(0.16 -0.16)">
       <use xlink:href="#DejaVuSans-30"/>
       <use xlink:href="#DejaVuSans-2e" transform="translate(63.623047 0)"/>
       <use xlink:href="#DejaVuSans-36" transform="translate(95.410156 0)"/>
      </g>
     </g>
    </g>
    <g id="ytick_17">
     <g id="line2d_53">
      <g>
       <use xlink:href="#m7ceb61fd49" x="907.253333" y="97.849524" style="stroke: #000000; stroke-width: 0.8"/>
      </g>
     </g>
     <g id="text_49">
      <!-- 0.8 -->
      <g transform="translate(874.808333 103.928274) scale(0.16 -0.16)">
       <use xlink:href="#DejaVuSans-30"/>
       <use xlink:href="#DejaVuSans-2e" transform="translate(63.623047 0)"/>
       <use xlink:href="#DejaVuSans-38" transform="translate(95.410156 0)"/>
      </g>
     </g>
    </g>
    <g id="ytick_18">
     <g id="line2d_54">
      <g>
       <use xlink:href="#m7ceb61fd49" x="907.253333" y="45.681905" style="stroke: #000000; stroke-width: 0.8"/>
      </g>
     </g>
     <g id="text_50">
      <!-- 1.0 -->
      <g transform="translate(874.808333 51.760655) scale(0.16 -0.16)">
       <use xlink:href="#DejaVuSans-31"/>
       <use xlink:href="#DejaVuSans-2e" transform="translate(63.623047 0)"/>
       <use xlink:href="#DejaVuSans-30" transform="translate(95.410156 0)"/>
      </g>
     </g>
    </g>
   </g>
   <g id="line2d_55">
    <path d="M 907.253333 306.52 
L 914.86191 306.52 
L 914.86191 297.525583 
L 945.296215 297.525583 
L 945.296215 279.536749 
L 968.121944 279.536749 
L 968.121944 270.542332 
L 983.339097 270.542332 
L 983.339097 252.553498 
L 1021.381979 252.553498 
L 1021.381979 234.564663 
L 1036.599132 234.564663 
L 1036.599132 225.570246 
L 1051.816285 225.570246 
L 1051.816285 216.575829 
L 1067.033438 216.575829 
L 1067.033438 207.581412 
L 1089.859167 207.581412 
L 1089.859167 171.603744 
L 1097.467743 171.603744 
L 1097.467743 162.609327 
L 1105.076319 162.609327 
L 1105.076319 135.626076 
L 1112.684896 135.626076 
L 1112.684896 126.631658 
L 1127.902049 126.631658 
L 1127.902049 117.637241 
L 1173.553507 117.637241 
L 1173.553507 108.642824 
L 1181.162083 108.642824 
L 1181.162083 99.648407 
L 1188.77066 99.648407 
L 1188.77066 72.665156 
L 1203.987813 72.665156 
L 1203.987813 63.670739 
L 1242.030694 63.670739 
L 1242.030694 45.681905 
L 1272.465 45.681905 
" clip-path="url(#p6ee05fc126)" style="fill: none; stroke: #3171ad; stroke-width: 3; stroke-linecap: square"/>
   </g>
   <g id="line2d_56">
    <path d="M 907.253333 306.52 
L 912.786843 306.52 
L 929.387374 306.52 
L 929.387374 259.094892 
L 940.454394 259.094892 
L 940.454394 235.382338 
L 968.121944 235.382338 
L 968.121944 187.957229 
L 1062.191616 187.957229 
L 1062.191616 164.244675 
L 1089.859167 164.244675 
L 1089.859167 140.532121 
L 1095.392677 140.532121 
L 1095.392677 116.819567 
L 1156.261288 116.819567 
L 1156.261288 93.107013 
L 1194.995859 93.107013 
L 1194.995859 69.394459 
L 1272.465 69.394459 
L 1272.465 45.681905 
" clip-path="url(#p6ee05fc126)" style="fill: none; stroke: #d39233; stroke-width: 3; stroke-linecap: square"/>
   </g>
   <g id="line2d_57">
    <path d="M 907.253333 306.52 
L 912.325718 306.52 
L 937.687639 306.52 
L 937.687639 254.352381 
L 1054.352477 254.352381 
L 1054.352477 202.184762 
L 1074.642014 202.184762 
L 1074.642014 150.017143 
L 1089.859167 150.017143 
L 1089.859167 97.849524 
L 1120.293472 97.849524 
L 1120.293472 45.681905 
L 1272.465 45.681905 
" clip-path="url(#p6ee05fc126)" style="fill: none; stroke: #469c76; stroke-width: 3; stroke-linecap: square"/>
   </g>
   <g id="line2d_58">
    <path d="M 907.253333 306.52 
L 907.253333 298.36881 
L 907.253333 282.066429 
L 947.832407 282.066429 
L 947.832407 273.915238 
L 955.948222 273.915238 
L 955.948222 265.764048 
L 964.064037 265.764048 
L 964.064037 257.612857 
L 972.179852 257.612857 
L 972.179852 241.310476 
L 996.527296 241.310476 
L 996.527296 208.705714 
L 1012.758926 208.705714 
L 1012.758926 192.403333 
L 1020.874741 192.403333 
L 1020.874741 184.252143 
L 1028.990556 184.252143 
L 1028.990556 159.798571 
L 1037.10637 159.798571 
L 1037.10637 151.647381 
L 1102.032889 151.647381 
L 1102.032889 143.49619 
L 1110.148704 143.49619 
L 1110.148704 135.345 
L 1118.264519 135.345 
L 1118.264519 127.19381 
L 1126.380333 127.19381 
L 1126.380333 119.042619 
L 1150.727778 119.042619 
L 1150.727778 94.589048 
L 1183.191037 94.589048 
L 1183.191037 78.286667 
L 1191.306852 78.286667 
L 1191.306852 70.135476 
L 1207.538481 70.135476 
L 1207.538481 61.984286 
L 1215.654296 61.984286 
L 1215.654296 53.833095 
L 1240.001741 53.833095 
L 1240.001741 45.681905 
L 1272.465 45.681905 
" clip-path="url(#p6ee05fc126)" style="fill: none; stroke: #c66526; stroke-width: 3; stroke-linecap: square"/>
   </g>
   <g id="line2d_59">
    <path d="M 907.253333 306.52 
L 1272.465 45.681905 
" clip-path="url(#p6ee05fc126)" style="fill: none; stroke-dasharray: 7.4,3.2; stroke-dashoffset: 0; stroke: #000000; stroke-width: 2"/>
   </g>
   <g id="patch_15">
    <path d="M 907.253333 306.52 
L 907.253333 32.64 
" style="fill: none; stroke: #000000; stroke-width: 0.8; stroke-linejoin: miter; stroke-linecap: square"/>
   </g>
   <g id="patch_16">
    <path d="M 1272.465 306.52 
L 1272.465 32.64 
" style="fill: none; stroke: #000000; stroke-width: 0.8; stroke-linejoin: miter; stroke-linecap: square"/>
   </g>
   <g id="patch_17">
    <path d="M 907.253333 306.52 
L 1272.465 306.52 
" style="fill: none; stroke: #000000; stroke-width: 0.8; stroke-linejoin: miter; stroke-linecap: square"/>
   </g>
   <g id="patch_18">
    <path d="M 907.253333 32.64 
L 1272.465 32.64 
" style="fill: none; stroke: #000000; stroke-width: 0.8; stroke-linejoin: miter; stroke-linecap: square"/>
   </g>
   <g id="text_51">
    <!-- Test ROC Curve -->
    <g transform="translate(1012.506042 26.64) scale(0.2 -0.2)">
     <use xlink:href="#DejaVuSans-54"/>
     <use xlink:href="#DejaVuSans-65" transform="translate(44.083984 0)"/>
     <use xlink:href="#DejaVuSans-73" transform="translate(105.607422 0)"/>
     <use xlink:href="#DejaVuSans-74" transform="translate(157.707031 0)"/>
     <use xlink:href="#DejaVuSans-20" transform="translate(196.916016 0)"/>
     <use xlink:href="#DejaVuSans-52" transform="translate(228.703125 0)"/>
     <use xlink:href="#DejaVuSans-4f" transform="translate(298.185547 0)"/>
     <use xlink:href="#DejaVuSans-43" transform="translate(376.896484 0)"/>
     <use xlink:href="#DejaVuSans-20" transform="translate(446.720703 0)"/>
     <use xlink:href="#DejaVuSans-43" transform="translate(478.507812 0)"/>
     <use xlink:href="#DejaVuSans-75" transform="translate(548.332031 0)"/>
     <use xlink:href="#DejaVuSans-72" transform="translate(611.710938 0)"/>
     <use xlink:href="#DejaVuSans-76" transform="translate(652.824219 0)"/>
     <use xlink:href="#DejaVuSans-65" transform="translate(712.003906 0)"/>
    </g>
   </g>
   <g id="legend_3">
    <g id="patch_19">
     <path d="M 1038.448437 299.52 
L 1262.665 299.52 
Q 1265.465 299.52 1265.465 296.72 
L 1265.465 215.9225 
Q 1265.465 213.1225 1262.665 213.1225 
L 1038.448437 213.1225 
Q 1035.648438 213.1225 1035.648438 215.9225 
L 1035.648438 296.72 
Q 1035.648438 299.52 1038.448437 299.52 
z
" style="fill: #ffffff; opacity: 0.8; stroke: #cccccc; stroke-linejoin: miter"/>
    </g>
    <g id="line2d_60">
     <path d="M 1041.248437 224.460312 
L 1055.248437 224.460312 
L 1069.248437 224.460312 
" style="fill: none; stroke: #3171ad; stroke-width: 3; stroke-linecap: square"/>
    </g>
    <g id="text_52">
     <!-- ADHD (AUC = 0.50) -->
     <g transform="translate(1080.448437 229.360312) scale(0.14 -0.14)">
      <use xlink:href="#DejaVuSans-41"/>
      <use xlink:href="#DejaVuSans-44" transform="translate(68.408203 0)"/>
      <use xlink:href="#DejaVuSans-48" transform="translate(145.410156 0)"/>
      <use xlink:href="#DejaVuSans-44" transform="translate(220.605469 0)"/>
      <use xlink:href="#DejaVuSans-20" transform="translate(297.607422 0)"/>
      <use xlink:href="#DejaVuSans-28" transform="translate(329.394531 0)"/>
      <use xlink:href="#DejaVuSans-41" transform="translate(368.408203 0)"/>
      <use xlink:href="#DejaVuSans-55" transform="translate(436.816406 0)"/>
      <use xlink:href="#DejaVuSans-43" transform="translate(510.009766 0)"/>
      <use xlink:href="#DejaVuSans-20" transform="translate(579.833984 0)"/>
      <use xlink:href="#DejaVuSans-3d" transform="translate(611.621094 0)"/>
      <use xlink:href="#DejaVuSans-20" transform="translate(695.410156 0)"/>
      <use xlink:href="#DejaVuSans-30" transform="translate(727.197266 0)"/>
      <use xlink:href="#DejaVuSans-2e" transform="translate(790.820312 0)"/>
      <use xlink:href="#DejaVuSans-35" transform="translate(822.607422 0)"/>
      <use xlink:href="#DejaVuSans-30" transform="translate(886.230469 0)"/>
      <use xlink:href="#DejaVuSans-29" transform="translate(949.853516 0)"/>
     </g>
    </g>
    <g id="line2d_61">
     <path d="M 1041.248437 245.009687 
L 1055.248437 245.009687 
L 1069.248437 245.009687 
" style="fill: none; stroke: #d39233; stroke-width: 3; stroke-linecap: square"/>
    </g>
    <g id="text_53">
     <!-- ASD (AUC = 0.60) -->
     <g transform="translate(1080.448437 249.909687) scale(0.14 -0.14)">
      <use xlink:href="#DejaVuSans-41"/>
      <use xlink:href="#DejaVuSans-53" transform="translate(68.408203 0)"/>
      <use xlink:href="#DejaVuSans-44" transform="translate(131.884766 0)"/>
      <use xlink:href="#DejaVuSans-20" transform="translate(208.886719 0)"/>
      <use xlink:href="#DejaVuSans-28" transform="translate(240.673828 0)"/>
      <use xlink:href="#DejaVuSans-41" transform="translate(279.6875 0)"/>
      <use xlink:href="#DejaVuSans-55" transform="translate(348.095703 0)"/>
      <use xlink:href="#DejaVuSans-43" transform="translate(421.289062 0)"/>
      <use xlink:href="#DejaVuSans-20" transform="translate(491.113281 0)"/>
      <use xlink:href="#DejaVuSans-3d" transform="translate(522.900391 0)"/>
      <use xlink:href="#DejaVuSans-20" transform="translate(606.689453 0)"/>
      <use xlink:href="#DejaVuSans-30" transform="translate(638.476562 0)"/>
      <use xlink:href="#DejaVuSans-2e" transform="translate(702.099609 0)"/>
      <use xlink:href="#DejaVuSans-36" transform="translate(733.886719 0)"/>
      <use xlink:href="#DejaVuSans-30" transform="translate(797.509766 0)"/>
      <use xlink:href="#DejaVuSans-29" transform="translate(861.132812 0)"/>
     </g>
    </g>
    <g id="line2d_62">
     <path d="M 1041.248437 265.559063 
L 1055.248437 265.559063 
L 1069.248437 265.559063 
" style="fill: none; stroke: #469c76; stroke-width: 3; stroke-linecap: square"/>
    </g>
    <g id="text_54">
     <!-- ASD+ADHD (AUC = 0.59) -->
     <g transform="translate(1080.448437 270.459063) scale(0.14 -0.14)">
      <use xlink:href="#DejaVuSans-41"/>
      <use xlink:href="#DejaVuSans-53" transform="translate(68.408203 0)"/>
      <use xlink:href="#DejaVuSans-44" transform="translate(131.884766 0)"/>
      <use xlink:href="#DejaVuSans-2b" transform="translate(208.886719 0)"/>
      <use xlink:href="#DejaVuSans-41" transform="translate(292.675781 0)"/>
      <use xlink:href="#DejaVuSans-44" transform="translate(361.083984 0)"/>
      <use xlink:href="#DejaVuSans-48" transform="translate(438.085938 0)"/>
      <use xlink:href="#DejaVuSans-44" transform="translate(513.28125 0)"/>
      <use xlink:href="#DejaVuSans-20" transform="translate(590.283203 0)"/>
      <use xlink:href="#DejaVuSans-28" transform="translate(622.070312 0)"/>
      <use xlink:href="#DejaVuSans-41" transform="translate(661.083984 0)"/>
      <use xlink:href="#DejaVuSans-55" transform="translate(729.492188 0)"/>
      <use xlink:href="#DejaVuSans-43" transform="translate(802.685547 0)"/>
      <use xlink:href="#DejaVuSans-20" transform="translate(872.509766 0)"/>
      <use xlink:href="#DejaVuSans-3d" transform="translate(904.296875 0)"/>
      <use xlink:href="#DejaVuSans-20" transform="translate(988.085938 0)"/>
      <use xlink:href="#DejaVuSans-30" transform="translate(1019.873047 0)"/>
      <use xlink:href="#DejaVuSans-2e" transform="translate(1083.496094 0)"/>
      <use xlink:href="#DejaVuSans-35" transform="translate(1115.283203 0)"/>
      <use xlink:href="#DejaVuSans-39" transform="translate(1178.90625 0)"/>
      <use xlink:href="#DejaVuSans-29" transform="translate(1242.529297 0)"/>
     </g>
    </g>
    <g id="line2d_63">
     <path d="M 1041.248437 286.108438 
L 1055.248437 286.108438 
L 1069.248437 286.108438 
" style="fill: none; stroke: #c66526; stroke-width: 3; stroke-linecap: square"/>
    </g>
    <g id="text_55">
     <!-- TD (AUC = 0.59) -->
     <g transform="translate(1080.448437 291.008438) scale(0.14 -0.14)">
      <use xlink:href="#DejaVuSans-54"/>
      <use xlink:href="#DejaVuSans-44" transform="translate(61.083984 0)"/>
      <use xlink:href="#DejaVuSans-20" transform="translate(138.085938 0)"/>
      <use xlink:href="#DejaVuSans-28" transform="translate(169.873047 0)"/>
      <use xlink:href="#DejaVuSans-41" transform="translate(208.886719 0)"/>
      <use xlink:href="#DejaVuSans-55" transform="translate(277.294922 0)"/>
      <use xlink:href="#DejaVuSans-43" transform="translate(350.488281 0)"/>
      <use xlink:href="#DejaVuSans-20" transform="translate(420.3125 0)"/>
      <use xlink:href="#DejaVuSans-3d" transform="translate(452.099609 0)"/>
      <use xlink:href="#DejaVuSans-20" transform="translate(535.888672 0)"/>
      <use xlink:href="#DejaVuSans-30" transform="translate(567.675781 0)"/>
      <use xlink:href="#DejaVuSans-2e" transform="translate(631.298828 0)"/>
      <use xlink:href="#DejaVuSans-35" transform="translate(663.085938 0)"/>
      <use xlink:href="#DejaVuSans-39" transform="translate(726.708984 0)"/>
      <use xlink:href="#DejaVuSans-29" transform="translate(790.332031 0)"/>
     </g>
    </g>
   </g>
  </g>
 </g>
 <defs>
  <clipPath id="p45c1c17a8f">
   <rect x="64.64" y="32.64" width="365.211667" height="273.88"/>
  </clipPath>
  <clipPath id="p812b5a3e1d">
   <rect x="485.946667" y="32.64" width="365.211667" height="273.88"/>
  </clipPath>
  <clipPath id="p6ee05fc126">
   <rect x="907.253333" y="32.64" width="365.211667" height="273.88"/>
  </clipPath>
 </defs>
</svg>
